%TF.GenerationSoftware,KiCad,Pcbnew,8.0.3*%
%TF.CreationDate,2024-08-08T10:10:11-07:00*%
%TF.ProjectId,VULED,56554c45-442e-46b6-9963-61645f706362,rev?*%
%TF.SameCoordinates,Original*%
%TF.FileFunction,Drillmap*%
%TF.FilePolarity,Positive*%
%FSLAX45Y45*%
G04 Gerber Fmt 4.5, Leading zero omitted, Abs format (unit mm)*
G04 Created by KiCad (PCBNEW 8.0.3) date 2024-08-08 10:10:11*
%MOMM*%
%LPD*%
G01*
G04 APERTURE LIST*
%ADD10C,0.050000*%
%ADD11C,0.200000*%
%ADD12C,0.100000*%
%ADD13C,0.170180*%
G04 APERTURE END LIST*
D10*
X4625000Y-13706000D02*
X4631000Y-5833000D01*
X14233000Y-14067000D02*
X4986500Y-14067500D01*
X14612381Y-5833119D02*
X14594500Y-13705500D01*
X14250881Y-5471619D02*
G75*
G02*
X14612381Y-5833119I-1J-361501D01*
G01*
X4992500Y-5471500D02*
X14250881Y-5471619D01*
X14594500Y-13705500D02*
G75*
G02*
X14233000Y-14067000I-361500J0D01*
G01*
X4631000Y-5833000D02*
G75*
G02*
X4992500Y-5471500I361500J0D01*
G01*
X4986500Y-14067500D02*
G75*
G02*
X4625000Y-13706000I0J361500D01*
G01*
D11*
D12*
X13282970Y-5879427D02*
X13382030Y-5978487D01*
X13382030Y-5879427D02*
X13282970Y-5978487D01*
X13282970Y-6629427D02*
X13382030Y-6728487D01*
X13382030Y-6629427D02*
X13282970Y-6728487D01*
D13*
X8898105Y-8358996D02*
G75*
G02*
X8727925Y-8358996I-85090J0D01*
G01*
X8727925Y-8358996D02*
G75*
G02*
X8898105Y-8358996I85090J0D01*
G01*
X9018105Y-7509004D02*
G75*
G02*
X8847925Y-7509004I-85090J0D01*
G01*
X8847925Y-7509004D02*
G75*
G02*
X9018105Y-7509004I85090J0D01*
G01*
X12298106Y-7509004D02*
G75*
G02*
X12127926Y-7509004I-85090J0D01*
G01*
X12127926Y-7509004D02*
G75*
G02*
X12298106Y-7509004I85090J0D01*
G01*
X12418106Y-8358996D02*
G75*
G02*
X12247926Y-8358996I-85090J0D01*
G01*
X12247926Y-8358996D02*
G75*
G02*
X12418106Y-8358996I85090J0D01*
G01*
D11*
X4883277Y-14381484D02*
X4883277Y-14181484D01*
X4883277Y-14181484D02*
X4930896Y-14181484D01*
X4930896Y-14181484D02*
X4959467Y-14191008D01*
X4959467Y-14191008D02*
X4978515Y-14210055D01*
X4978515Y-14210055D02*
X4988039Y-14229103D01*
X4988039Y-14229103D02*
X4997563Y-14267198D01*
X4997563Y-14267198D02*
X4997563Y-14295769D01*
X4997563Y-14295769D02*
X4988039Y-14333865D01*
X4988039Y-14333865D02*
X4978515Y-14352912D01*
X4978515Y-14352912D02*
X4959467Y-14371960D01*
X4959467Y-14371960D02*
X4930896Y-14381484D01*
X4930896Y-14381484D02*
X4883277Y-14381484D01*
X5083277Y-14381484D02*
X5083277Y-14248150D01*
X5083277Y-14286246D02*
X5092801Y-14267198D01*
X5092801Y-14267198D02*
X5102324Y-14257674D01*
X5102324Y-14257674D02*
X5121372Y-14248150D01*
X5121372Y-14248150D02*
X5140420Y-14248150D01*
X5207086Y-14381484D02*
X5207086Y-14248150D01*
X5207086Y-14181484D02*
X5197563Y-14191008D01*
X5197563Y-14191008D02*
X5207086Y-14200531D01*
X5207086Y-14200531D02*
X5216610Y-14191008D01*
X5216610Y-14191008D02*
X5207086Y-14181484D01*
X5207086Y-14181484D02*
X5207086Y-14200531D01*
X5330896Y-14381484D02*
X5311848Y-14371960D01*
X5311848Y-14371960D02*
X5302324Y-14352912D01*
X5302324Y-14352912D02*
X5302324Y-14181484D01*
X5435658Y-14381484D02*
X5416610Y-14371960D01*
X5416610Y-14371960D02*
X5407086Y-14352912D01*
X5407086Y-14352912D02*
X5407086Y-14181484D01*
X5664229Y-14381484D02*
X5664229Y-14181484D01*
X5664229Y-14181484D02*
X5730896Y-14324341D01*
X5730896Y-14324341D02*
X5797562Y-14181484D01*
X5797562Y-14181484D02*
X5797562Y-14381484D01*
X5978515Y-14381484D02*
X5978515Y-14276722D01*
X5978515Y-14276722D02*
X5968991Y-14257674D01*
X5968991Y-14257674D02*
X5949943Y-14248150D01*
X5949943Y-14248150D02*
X5911848Y-14248150D01*
X5911848Y-14248150D02*
X5892801Y-14257674D01*
X5978515Y-14371960D02*
X5959467Y-14381484D01*
X5959467Y-14381484D02*
X5911848Y-14381484D01*
X5911848Y-14381484D02*
X5892801Y-14371960D01*
X5892801Y-14371960D02*
X5883277Y-14352912D01*
X5883277Y-14352912D02*
X5883277Y-14333865D01*
X5883277Y-14333865D02*
X5892801Y-14314817D01*
X5892801Y-14314817D02*
X5911848Y-14305293D01*
X5911848Y-14305293D02*
X5959467Y-14305293D01*
X5959467Y-14305293D02*
X5978515Y-14295769D01*
X6073753Y-14248150D02*
X6073753Y-14448150D01*
X6073753Y-14257674D02*
X6092801Y-14248150D01*
X6092801Y-14248150D02*
X6130896Y-14248150D01*
X6130896Y-14248150D02*
X6149943Y-14257674D01*
X6149943Y-14257674D02*
X6159467Y-14267198D01*
X6159467Y-14267198D02*
X6168991Y-14286246D01*
X6168991Y-14286246D02*
X6168991Y-14343388D01*
X6168991Y-14343388D02*
X6159467Y-14362436D01*
X6159467Y-14362436D02*
X6149943Y-14371960D01*
X6149943Y-14371960D02*
X6130896Y-14381484D01*
X6130896Y-14381484D02*
X6092801Y-14381484D01*
X6092801Y-14381484D02*
X6073753Y-14371960D01*
X6254705Y-14362436D02*
X6264229Y-14371960D01*
X6264229Y-14371960D02*
X6254705Y-14381484D01*
X6254705Y-14381484D02*
X6245182Y-14371960D01*
X6245182Y-14371960D02*
X6254705Y-14362436D01*
X6254705Y-14362436D02*
X6254705Y-14381484D01*
X6254705Y-14257674D02*
X6264229Y-14267198D01*
X6264229Y-14267198D02*
X6254705Y-14276722D01*
X6254705Y-14276722D02*
X6245182Y-14267198D01*
X6245182Y-14267198D02*
X6254705Y-14257674D01*
X6254705Y-14257674D02*
X6254705Y-14276722D01*
D12*
X4523440Y-14660470D02*
X4622500Y-14759530D01*
X4622500Y-14660470D02*
X4523440Y-14759530D01*
D11*
X4921372Y-14601484D02*
X4940420Y-14601484D01*
X4940420Y-14601484D02*
X4959467Y-14611008D01*
X4959467Y-14611008D02*
X4968991Y-14620531D01*
X4968991Y-14620531D02*
X4978515Y-14639579D01*
X4978515Y-14639579D02*
X4988039Y-14677674D01*
X4988039Y-14677674D02*
X4988039Y-14725293D01*
X4988039Y-14725293D02*
X4978515Y-14763388D01*
X4978515Y-14763388D02*
X4968991Y-14782436D01*
X4968991Y-14782436D02*
X4959467Y-14791960D01*
X4959467Y-14791960D02*
X4940420Y-14801484D01*
X4940420Y-14801484D02*
X4921372Y-14801484D01*
X4921372Y-14801484D02*
X4902324Y-14791960D01*
X4902324Y-14791960D02*
X4892801Y-14782436D01*
X4892801Y-14782436D02*
X4883277Y-14763388D01*
X4883277Y-14763388D02*
X4873753Y-14725293D01*
X4873753Y-14725293D02*
X4873753Y-14677674D01*
X4873753Y-14677674D02*
X4883277Y-14639579D01*
X4883277Y-14639579D02*
X4892801Y-14620531D01*
X4892801Y-14620531D02*
X4902324Y-14611008D01*
X4902324Y-14611008D02*
X4921372Y-14601484D01*
X5073753Y-14782436D02*
X5083277Y-14791960D01*
X5083277Y-14791960D02*
X5073753Y-14801484D01*
X5073753Y-14801484D02*
X5064229Y-14791960D01*
X5064229Y-14791960D02*
X5073753Y-14782436D01*
X5073753Y-14782436D02*
X5073753Y-14801484D01*
X5178515Y-14801484D02*
X5216610Y-14801484D01*
X5216610Y-14801484D02*
X5235658Y-14791960D01*
X5235658Y-14791960D02*
X5245182Y-14782436D01*
X5245182Y-14782436D02*
X5264229Y-14753865D01*
X5264229Y-14753865D02*
X5273753Y-14715769D01*
X5273753Y-14715769D02*
X5273753Y-14639579D01*
X5273753Y-14639579D02*
X5264229Y-14620531D01*
X5264229Y-14620531D02*
X5254705Y-14611008D01*
X5254705Y-14611008D02*
X5235658Y-14601484D01*
X5235658Y-14601484D02*
X5197563Y-14601484D01*
X5197563Y-14601484D02*
X5178515Y-14611008D01*
X5178515Y-14611008D02*
X5168991Y-14620531D01*
X5168991Y-14620531D02*
X5159467Y-14639579D01*
X5159467Y-14639579D02*
X5159467Y-14687198D01*
X5159467Y-14687198D02*
X5168991Y-14706246D01*
X5168991Y-14706246D02*
X5178515Y-14715769D01*
X5178515Y-14715769D02*
X5197563Y-14725293D01*
X5197563Y-14725293D02*
X5235658Y-14725293D01*
X5235658Y-14725293D02*
X5254705Y-14715769D01*
X5254705Y-14715769D02*
X5264229Y-14706246D01*
X5264229Y-14706246D02*
X5273753Y-14687198D01*
X5368991Y-14801484D02*
X5407086Y-14801484D01*
X5407086Y-14801484D02*
X5426134Y-14791960D01*
X5426134Y-14791960D02*
X5435658Y-14782436D01*
X5435658Y-14782436D02*
X5454705Y-14753865D01*
X5454705Y-14753865D02*
X5464229Y-14715769D01*
X5464229Y-14715769D02*
X5464229Y-14639579D01*
X5464229Y-14639579D02*
X5454705Y-14620531D01*
X5454705Y-14620531D02*
X5445182Y-14611008D01*
X5445182Y-14611008D02*
X5426134Y-14601484D01*
X5426134Y-14601484D02*
X5388039Y-14601484D01*
X5388039Y-14601484D02*
X5368991Y-14611008D01*
X5368991Y-14611008D02*
X5359467Y-14620531D01*
X5359467Y-14620531D02*
X5349944Y-14639579D01*
X5349944Y-14639579D02*
X5349944Y-14687198D01*
X5349944Y-14687198D02*
X5359467Y-14706246D01*
X5359467Y-14706246D02*
X5368991Y-14715769D01*
X5368991Y-14715769D02*
X5388039Y-14725293D01*
X5388039Y-14725293D02*
X5426134Y-14725293D01*
X5426134Y-14725293D02*
X5445182Y-14715769D01*
X5445182Y-14715769D02*
X5454705Y-14706246D01*
X5454705Y-14706246D02*
X5464229Y-14687198D01*
X5654705Y-14801484D02*
X5540420Y-14801484D01*
X5597562Y-14801484D02*
X5597562Y-14601484D01*
X5597562Y-14601484D02*
X5578515Y-14630055D01*
X5578515Y-14630055D02*
X5559467Y-14649103D01*
X5559467Y-14649103D02*
X5540420Y-14658627D01*
X5740420Y-14801484D02*
X5740420Y-14668150D01*
X5740420Y-14687198D02*
X5749943Y-14677674D01*
X5749943Y-14677674D02*
X5768991Y-14668150D01*
X5768991Y-14668150D02*
X5797563Y-14668150D01*
X5797563Y-14668150D02*
X5816610Y-14677674D01*
X5816610Y-14677674D02*
X5826134Y-14696722D01*
X5826134Y-14696722D02*
X5826134Y-14801484D01*
X5826134Y-14696722D02*
X5835658Y-14677674D01*
X5835658Y-14677674D02*
X5854705Y-14668150D01*
X5854705Y-14668150D02*
X5883277Y-14668150D01*
X5883277Y-14668150D02*
X5902324Y-14677674D01*
X5902324Y-14677674D02*
X5911848Y-14696722D01*
X5911848Y-14696722D02*
X5911848Y-14801484D01*
X6007086Y-14801484D02*
X6007086Y-14668150D01*
X6007086Y-14687198D02*
X6016610Y-14677674D01*
X6016610Y-14677674D02*
X6035658Y-14668150D01*
X6035658Y-14668150D02*
X6064229Y-14668150D01*
X6064229Y-14668150D02*
X6083277Y-14677674D01*
X6083277Y-14677674D02*
X6092801Y-14696722D01*
X6092801Y-14696722D02*
X6092801Y-14801484D01*
X6092801Y-14696722D02*
X6102324Y-14677674D01*
X6102324Y-14677674D02*
X6121372Y-14668150D01*
X6121372Y-14668150D02*
X6149943Y-14668150D01*
X6149943Y-14668150D02*
X6168991Y-14677674D01*
X6168991Y-14677674D02*
X6178515Y-14696722D01*
X6178515Y-14696722D02*
X6178515Y-14801484D01*
X6568991Y-14591960D02*
X6397563Y-14849103D01*
X6826134Y-14601484D02*
X6845182Y-14601484D01*
X6845182Y-14601484D02*
X6864229Y-14611008D01*
X6864229Y-14611008D02*
X6873753Y-14620531D01*
X6873753Y-14620531D02*
X6883277Y-14639579D01*
X6883277Y-14639579D02*
X6892801Y-14677674D01*
X6892801Y-14677674D02*
X6892801Y-14725293D01*
X6892801Y-14725293D02*
X6883277Y-14763388D01*
X6883277Y-14763388D02*
X6873753Y-14782436D01*
X6873753Y-14782436D02*
X6864229Y-14791960D01*
X6864229Y-14791960D02*
X6845182Y-14801484D01*
X6845182Y-14801484D02*
X6826134Y-14801484D01*
X6826134Y-14801484D02*
X6807086Y-14791960D01*
X6807086Y-14791960D02*
X6797563Y-14782436D01*
X6797563Y-14782436D02*
X6788039Y-14763388D01*
X6788039Y-14763388D02*
X6778515Y-14725293D01*
X6778515Y-14725293D02*
X6778515Y-14677674D01*
X6778515Y-14677674D02*
X6788039Y-14639579D01*
X6788039Y-14639579D02*
X6797563Y-14620531D01*
X6797563Y-14620531D02*
X6807086Y-14611008D01*
X6807086Y-14611008D02*
X6826134Y-14601484D01*
X6978515Y-14782436D02*
X6988039Y-14791960D01*
X6988039Y-14791960D02*
X6978515Y-14801484D01*
X6978515Y-14801484D02*
X6968991Y-14791960D01*
X6968991Y-14791960D02*
X6978515Y-14782436D01*
X6978515Y-14782436D02*
X6978515Y-14801484D01*
X7111848Y-14601484D02*
X7130896Y-14601484D01*
X7130896Y-14601484D02*
X7149944Y-14611008D01*
X7149944Y-14611008D02*
X7159467Y-14620531D01*
X7159467Y-14620531D02*
X7168991Y-14639579D01*
X7168991Y-14639579D02*
X7178515Y-14677674D01*
X7178515Y-14677674D02*
X7178515Y-14725293D01*
X7178515Y-14725293D02*
X7168991Y-14763388D01*
X7168991Y-14763388D02*
X7159467Y-14782436D01*
X7159467Y-14782436D02*
X7149944Y-14791960D01*
X7149944Y-14791960D02*
X7130896Y-14801484D01*
X7130896Y-14801484D02*
X7111848Y-14801484D01*
X7111848Y-14801484D02*
X7092801Y-14791960D01*
X7092801Y-14791960D02*
X7083277Y-14782436D01*
X7083277Y-14782436D02*
X7073753Y-14763388D01*
X7073753Y-14763388D02*
X7064229Y-14725293D01*
X7064229Y-14725293D02*
X7064229Y-14677674D01*
X7064229Y-14677674D02*
X7073753Y-14639579D01*
X7073753Y-14639579D02*
X7083277Y-14620531D01*
X7083277Y-14620531D02*
X7092801Y-14611008D01*
X7092801Y-14611008D02*
X7111848Y-14601484D01*
X7245182Y-14601484D02*
X7368991Y-14601484D01*
X7368991Y-14601484D02*
X7302325Y-14677674D01*
X7302325Y-14677674D02*
X7330896Y-14677674D01*
X7330896Y-14677674D02*
X7349944Y-14687198D01*
X7349944Y-14687198D02*
X7359467Y-14696722D01*
X7359467Y-14696722D02*
X7368991Y-14715769D01*
X7368991Y-14715769D02*
X7368991Y-14763388D01*
X7368991Y-14763388D02*
X7359467Y-14782436D01*
X7359467Y-14782436D02*
X7349944Y-14791960D01*
X7349944Y-14791960D02*
X7330896Y-14801484D01*
X7330896Y-14801484D02*
X7273753Y-14801484D01*
X7273753Y-14801484D02*
X7254706Y-14791960D01*
X7254706Y-14791960D02*
X7245182Y-14782436D01*
X7464229Y-14801484D02*
X7502325Y-14801484D01*
X7502325Y-14801484D02*
X7521372Y-14791960D01*
X7521372Y-14791960D02*
X7530896Y-14782436D01*
X7530896Y-14782436D02*
X7549944Y-14753865D01*
X7549944Y-14753865D02*
X7559467Y-14715769D01*
X7559467Y-14715769D02*
X7559467Y-14639579D01*
X7559467Y-14639579D02*
X7549944Y-14620531D01*
X7549944Y-14620531D02*
X7540420Y-14611008D01*
X7540420Y-14611008D02*
X7521372Y-14601484D01*
X7521372Y-14601484D02*
X7483277Y-14601484D01*
X7483277Y-14601484D02*
X7464229Y-14611008D01*
X7464229Y-14611008D02*
X7454706Y-14620531D01*
X7454706Y-14620531D02*
X7445182Y-14639579D01*
X7445182Y-14639579D02*
X7445182Y-14687198D01*
X7445182Y-14687198D02*
X7454706Y-14706246D01*
X7454706Y-14706246D02*
X7464229Y-14715769D01*
X7464229Y-14715769D02*
X7483277Y-14725293D01*
X7483277Y-14725293D02*
X7521372Y-14725293D01*
X7521372Y-14725293D02*
X7540420Y-14715769D01*
X7540420Y-14715769D02*
X7549944Y-14706246D01*
X7549944Y-14706246D02*
X7559467Y-14687198D01*
X7683277Y-14601484D02*
X7702325Y-14601484D01*
X7702325Y-14601484D02*
X7721372Y-14611008D01*
X7721372Y-14611008D02*
X7730896Y-14620531D01*
X7730896Y-14620531D02*
X7740420Y-14639579D01*
X7740420Y-14639579D02*
X7749944Y-14677674D01*
X7749944Y-14677674D02*
X7749944Y-14725293D01*
X7749944Y-14725293D02*
X7740420Y-14763388D01*
X7740420Y-14763388D02*
X7730896Y-14782436D01*
X7730896Y-14782436D02*
X7721372Y-14791960D01*
X7721372Y-14791960D02*
X7702325Y-14801484D01*
X7702325Y-14801484D02*
X7683277Y-14801484D01*
X7683277Y-14801484D02*
X7664229Y-14791960D01*
X7664229Y-14791960D02*
X7654706Y-14782436D01*
X7654706Y-14782436D02*
X7645182Y-14763388D01*
X7645182Y-14763388D02*
X7635658Y-14725293D01*
X7635658Y-14725293D02*
X7635658Y-14677674D01*
X7635658Y-14677674D02*
X7645182Y-14639579D01*
X7645182Y-14639579D02*
X7654706Y-14620531D01*
X7654706Y-14620531D02*
X7664229Y-14611008D01*
X7664229Y-14611008D02*
X7683277Y-14601484D01*
X7826134Y-14601484D02*
X7826134Y-14639579D01*
X7902325Y-14601484D02*
X7902325Y-14639579D01*
X8197563Y-14877674D02*
X8188039Y-14868150D01*
X8188039Y-14868150D02*
X8168991Y-14839579D01*
X8168991Y-14839579D02*
X8159468Y-14820531D01*
X8159468Y-14820531D02*
X8149944Y-14791960D01*
X8149944Y-14791960D02*
X8140420Y-14744341D01*
X8140420Y-14744341D02*
X8140420Y-14706246D01*
X8140420Y-14706246D02*
X8149944Y-14658627D01*
X8149944Y-14658627D02*
X8159468Y-14630055D01*
X8159468Y-14630055D02*
X8168991Y-14611008D01*
X8168991Y-14611008D02*
X8188039Y-14582436D01*
X8188039Y-14582436D02*
X8197563Y-14572912D01*
X8264229Y-14620531D02*
X8273753Y-14611008D01*
X8273753Y-14611008D02*
X8292801Y-14601484D01*
X8292801Y-14601484D02*
X8340420Y-14601484D01*
X8340420Y-14601484D02*
X8359468Y-14611008D01*
X8359468Y-14611008D02*
X8368991Y-14620531D01*
X8368991Y-14620531D02*
X8378515Y-14639579D01*
X8378515Y-14639579D02*
X8378515Y-14658627D01*
X8378515Y-14658627D02*
X8368991Y-14687198D01*
X8368991Y-14687198D02*
X8254706Y-14801484D01*
X8254706Y-14801484D02*
X8378515Y-14801484D01*
X8616611Y-14801484D02*
X8616611Y-14601484D01*
X8702325Y-14801484D02*
X8702325Y-14696722D01*
X8702325Y-14696722D02*
X8692801Y-14677674D01*
X8692801Y-14677674D02*
X8673753Y-14668150D01*
X8673753Y-14668150D02*
X8645182Y-14668150D01*
X8645182Y-14668150D02*
X8626134Y-14677674D01*
X8626134Y-14677674D02*
X8616611Y-14687198D01*
X8826134Y-14801484D02*
X8807087Y-14791960D01*
X8807087Y-14791960D02*
X8797563Y-14782436D01*
X8797563Y-14782436D02*
X8788039Y-14763388D01*
X8788039Y-14763388D02*
X8788039Y-14706246D01*
X8788039Y-14706246D02*
X8797563Y-14687198D01*
X8797563Y-14687198D02*
X8807087Y-14677674D01*
X8807087Y-14677674D02*
X8826134Y-14668150D01*
X8826134Y-14668150D02*
X8854706Y-14668150D01*
X8854706Y-14668150D02*
X8873753Y-14677674D01*
X8873753Y-14677674D02*
X8883277Y-14687198D01*
X8883277Y-14687198D02*
X8892801Y-14706246D01*
X8892801Y-14706246D02*
X8892801Y-14763388D01*
X8892801Y-14763388D02*
X8883277Y-14782436D01*
X8883277Y-14782436D02*
X8873753Y-14791960D01*
X8873753Y-14791960D02*
X8854706Y-14801484D01*
X8854706Y-14801484D02*
X8826134Y-14801484D01*
X9007087Y-14801484D02*
X8988039Y-14791960D01*
X8988039Y-14791960D02*
X8978515Y-14772912D01*
X8978515Y-14772912D02*
X8978515Y-14601484D01*
X9159468Y-14791960D02*
X9140420Y-14801484D01*
X9140420Y-14801484D02*
X9102325Y-14801484D01*
X9102325Y-14801484D02*
X9083277Y-14791960D01*
X9083277Y-14791960D02*
X9073753Y-14772912D01*
X9073753Y-14772912D02*
X9073753Y-14696722D01*
X9073753Y-14696722D02*
X9083277Y-14677674D01*
X9083277Y-14677674D02*
X9102325Y-14668150D01*
X9102325Y-14668150D02*
X9140420Y-14668150D01*
X9140420Y-14668150D02*
X9159468Y-14677674D01*
X9159468Y-14677674D02*
X9168992Y-14696722D01*
X9168992Y-14696722D02*
X9168992Y-14715769D01*
X9168992Y-14715769D02*
X9073753Y-14734817D01*
X9245182Y-14791960D02*
X9264230Y-14801484D01*
X9264230Y-14801484D02*
X9302325Y-14801484D01*
X9302325Y-14801484D02*
X9321373Y-14791960D01*
X9321373Y-14791960D02*
X9330896Y-14772912D01*
X9330896Y-14772912D02*
X9330896Y-14763388D01*
X9330896Y-14763388D02*
X9321373Y-14744341D01*
X9321373Y-14744341D02*
X9302325Y-14734817D01*
X9302325Y-14734817D02*
X9273753Y-14734817D01*
X9273753Y-14734817D02*
X9254706Y-14725293D01*
X9254706Y-14725293D02*
X9245182Y-14706246D01*
X9245182Y-14706246D02*
X9245182Y-14696722D01*
X9245182Y-14696722D02*
X9254706Y-14677674D01*
X9254706Y-14677674D02*
X9273753Y-14668150D01*
X9273753Y-14668150D02*
X9302325Y-14668150D01*
X9302325Y-14668150D02*
X9321373Y-14677674D01*
X9397563Y-14877674D02*
X9407087Y-14868150D01*
X9407087Y-14868150D02*
X9426134Y-14839579D01*
X9426134Y-14839579D02*
X9435658Y-14820531D01*
X9435658Y-14820531D02*
X9445182Y-14791960D01*
X9445182Y-14791960D02*
X9454706Y-14744341D01*
X9454706Y-14744341D02*
X9454706Y-14706246D01*
X9454706Y-14706246D02*
X9445182Y-14658627D01*
X9445182Y-14658627D02*
X9435658Y-14630055D01*
X9435658Y-14630055D02*
X9426134Y-14611008D01*
X9426134Y-14611008D02*
X9407087Y-14582436D01*
X9407087Y-14582436D02*
X9397563Y-14572912D01*
X9759468Y-14877674D02*
X9749944Y-14868150D01*
X9749944Y-14868150D02*
X9730896Y-14839579D01*
X9730896Y-14839579D02*
X9721373Y-14820531D01*
X9721373Y-14820531D02*
X9711849Y-14791960D01*
X9711849Y-14791960D02*
X9702325Y-14744341D01*
X9702325Y-14744341D02*
X9702325Y-14706246D01*
X9702325Y-14706246D02*
X9711849Y-14658627D01*
X9711849Y-14658627D02*
X9721373Y-14630055D01*
X9721373Y-14630055D02*
X9730896Y-14611008D01*
X9730896Y-14611008D02*
X9749944Y-14582436D01*
X9749944Y-14582436D02*
X9759468Y-14572912D01*
X9835658Y-14668150D02*
X9835658Y-14801484D01*
X9835658Y-14687198D02*
X9845182Y-14677674D01*
X9845182Y-14677674D02*
X9864230Y-14668150D01*
X9864230Y-14668150D02*
X9892801Y-14668150D01*
X9892801Y-14668150D02*
X9911849Y-14677674D01*
X9911849Y-14677674D02*
X9921373Y-14696722D01*
X9921373Y-14696722D02*
X9921373Y-14801484D01*
X10045182Y-14801484D02*
X10026134Y-14791960D01*
X10026134Y-14791960D02*
X10016611Y-14782436D01*
X10016611Y-14782436D02*
X10007087Y-14763388D01*
X10007087Y-14763388D02*
X10007087Y-14706246D01*
X10007087Y-14706246D02*
X10016611Y-14687198D01*
X10016611Y-14687198D02*
X10026134Y-14677674D01*
X10026134Y-14677674D02*
X10045182Y-14668150D01*
X10045182Y-14668150D02*
X10073754Y-14668150D01*
X10073754Y-14668150D02*
X10092801Y-14677674D01*
X10092801Y-14677674D02*
X10102325Y-14687198D01*
X10102325Y-14687198D02*
X10111849Y-14706246D01*
X10111849Y-14706246D02*
X10111849Y-14763388D01*
X10111849Y-14763388D02*
X10102325Y-14782436D01*
X10102325Y-14782436D02*
X10092801Y-14791960D01*
X10092801Y-14791960D02*
X10073754Y-14801484D01*
X10073754Y-14801484D02*
X10045182Y-14801484D01*
X10168992Y-14668150D02*
X10245182Y-14668150D01*
X10197563Y-14601484D02*
X10197563Y-14772912D01*
X10197563Y-14772912D02*
X10207087Y-14791960D01*
X10207087Y-14791960D02*
X10226134Y-14801484D01*
X10226134Y-14801484D02*
X10245182Y-14801484D01*
X10464230Y-14668150D02*
X10464230Y-14868150D01*
X10464230Y-14677674D02*
X10483277Y-14668150D01*
X10483277Y-14668150D02*
X10521373Y-14668150D01*
X10521373Y-14668150D02*
X10540420Y-14677674D01*
X10540420Y-14677674D02*
X10549944Y-14687198D01*
X10549944Y-14687198D02*
X10559468Y-14706246D01*
X10559468Y-14706246D02*
X10559468Y-14763388D01*
X10559468Y-14763388D02*
X10549944Y-14782436D01*
X10549944Y-14782436D02*
X10540420Y-14791960D01*
X10540420Y-14791960D02*
X10521373Y-14801484D01*
X10521373Y-14801484D02*
X10483277Y-14801484D01*
X10483277Y-14801484D02*
X10464230Y-14791960D01*
X10673754Y-14801484D02*
X10654706Y-14791960D01*
X10654706Y-14791960D02*
X10645182Y-14772912D01*
X10645182Y-14772912D02*
X10645182Y-14601484D01*
X10835658Y-14801484D02*
X10835658Y-14696722D01*
X10835658Y-14696722D02*
X10826135Y-14677674D01*
X10826135Y-14677674D02*
X10807087Y-14668150D01*
X10807087Y-14668150D02*
X10768992Y-14668150D01*
X10768992Y-14668150D02*
X10749944Y-14677674D01*
X10835658Y-14791960D02*
X10816611Y-14801484D01*
X10816611Y-14801484D02*
X10768992Y-14801484D01*
X10768992Y-14801484D02*
X10749944Y-14791960D01*
X10749944Y-14791960D02*
X10740420Y-14772912D01*
X10740420Y-14772912D02*
X10740420Y-14753865D01*
X10740420Y-14753865D02*
X10749944Y-14734817D01*
X10749944Y-14734817D02*
X10768992Y-14725293D01*
X10768992Y-14725293D02*
X10816611Y-14725293D01*
X10816611Y-14725293D02*
X10835658Y-14715769D01*
X10902325Y-14668150D02*
X10978515Y-14668150D01*
X10930896Y-14601484D02*
X10930896Y-14772912D01*
X10930896Y-14772912D02*
X10940420Y-14791960D01*
X10940420Y-14791960D02*
X10959468Y-14801484D01*
X10959468Y-14801484D02*
X10978515Y-14801484D01*
X11121373Y-14791960D02*
X11102325Y-14801484D01*
X11102325Y-14801484D02*
X11064230Y-14801484D01*
X11064230Y-14801484D02*
X11045182Y-14791960D01*
X11045182Y-14791960D02*
X11035658Y-14772912D01*
X11035658Y-14772912D02*
X11035658Y-14696722D01*
X11035658Y-14696722D02*
X11045182Y-14677674D01*
X11045182Y-14677674D02*
X11064230Y-14668150D01*
X11064230Y-14668150D02*
X11102325Y-14668150D01*
X11102325Y-14668150D02*
X11121373Y-14677674D01*
X11121373Y-14677674D02*
X11130896Y-14696722D01*
X11130896Y-14696722D02*
X11130896Y-14715769D01*
X11130896Y-14715769D02*
X11035658Y-14734817D01*
X11302325Y-14801484D02*
X11302325Y-14601484D01*
X11302325Y-14791960D02*
X11283277Y-14801484D01*
X11283277Y-14801484D02*
X11245182Y-14801484D01*
X11245182Y-14801484D02*
X11226134Y-14791960D01*
X11226134Y-14791960D02*
X11216611Y-14782436D01*
X11216611Y-14782436D02*
X11207087Y-14763388D01*
X11207087Y-14763388D02*
X11207087Y-14706246D01*
X11207087Y-14706246D02*
X11216611Y-14687198D01*
X11216611Y-14687198D02*
X11226134Y-14677674D01*
X11226134Y-14677674D02*
X11245182Y-14668150D01*
X11245182Y-14668150D02*
X11283277Y-14668150D01*
X11283277Y-14668150D02*
X11302325Y-14677674D01*
X11378515Y-14877674D02*
X11388039Y-14868150D01*
X11388039Y-14868150D02*
X11407087Y-14839579D01*
X11407087Y-14839579D02*
X11416611Y-14820531D01*
X11416611Y-14820531D02*
X11426134Y-14791960D01*
X11426134Y-14791960D02*
X11435658Y-14744341D01*
X11435658Y-14744341D02*
X11435658Y-14706246D01*
X11435658Y-14706246D02*
X11426134Y-14658627D01*
X11426134Y-14658627D02*
X11416611Y-14630055D01*
X11416611Y-14630055D02*
X11407087Y-14611008D01*
X11407087Y-14611008D02*
X11388039Y-14582436D01*
X11388039Y-14582436D02*
X11378515Y-14572912D01*
D13*
X4622500Y-14974000D02*
G75*
G02*
X4452320Y-14974000I-85090J0D01*
G01*
X4452320Y-14974000D02*
G75*
G02*
X4622500Y-14974000I85090J0D01*
G01*
D11*
X4988039Y-15065484D02*
X4873753Y-15065484D01*
X4930896Y-15065484D02*
X4930896Y-14865484D01*
X4930896Y-14865484D02*
X4911848Y-14894055D01*
X4911848Y-14894055D02*
X4892801Y-14913103D01*
X4892801Y-14913103D02*
X4873753Y-14922627D01*
X5073753Y-15046436D02*
X5083277Y-15055960D01*
X5083277Y-15055960D02*
X5073753Y-15065484D01*
X5073753Y-15065484D02*
X5064229Y-15055960D01*
X5064229Y-15055960D02*
X5073753Y-15046436D01*
X5073753Y-15046436D02*
X5073753Y-15065484D01*
X5149944Y-14865484D02*
X5283277Y-14865484D01*
X5283277Y-14865484D02*
X5197563Y-15065484D01*
X5397563Y-14865484D02*
X5416610Y-14865484D01*
X5416610Y-14865484D02*
X5435658Y-14875008D01*
X5435658Y-14875008D02*
X5445182Y-14884531D01*
X5445182Y-14884531D02*
X5454705Y-14903579D01*
X5454705Y-14903579D02*
X5464229Y-14941674D01*
X5464229Y-14941674D02*
X5464229Y-14989293D01*
X5464229Y-14989293D02*
X5454705Y-15027388D01*
X5454705Y-15027388D02*
X5445182Y-15046436D01*
X5445182Y-15046436D02*
X5435658Y-15055960D01*
X5435658Y-15055960D02*
X5416610Y-15065484D01*
X5416610Y-15065484D02*
X5397563Y-15065484D01*
X5397563Y-15065484D02*
X5378515Y-15055960D01*
X5378515Y-15055960D02*
X5368991Y-15046436D01*
X5368991Y-15046436D02*
X5359467Y-15027388D01*
X5359467Y-15027388D02*
X5349944Y-14989293D01*
X5349944Y-14989293D02*
X5349944Y-14941674D01*
X5349944Y-14941674D02*
X5359467Y-14903579D01*
X5359467Y-14903579D02*
X5368991Y-14884531D01*
X5368991Y-14884531D02*
X5378515Y-14875008D01*
X5378515Y-14875008D02*
X5397563Y-14865484D01*
X5540420Y-14884531D02*
X5549944Y-14875008D01*
X5549944Y-14875008D02*
X5568991Y-14865484D01*
X5568991Y-14865484D02*
X5616610Y-14865484D01*
X5616610Y-14865484D02*
X5635658Y-14875008D01*
X5635658Y-14875008D02*
X5645182Y-14884531D01*
X5645182Y-14884531D02*
X5654705Y-14903579D01*
X5654705Y-14903579D02*
X5654705Y-14922627D01*
X5654705Y-14922627D02*
X5645182Y-14951198D01*
X5645182Y-14951198D02*
X5530896Y-15065484D01*
X5530896Y-15065484D02*
X5654705Y-15065484D01*
X5740420Y-15065484D02*
X5740420Y-14932150D01*
X5740420Y-14951198D02*
X5749943Y-14941674D01*
X5749943Y-14941674D02*
X5768991Y-14932150D01*
X5768991Y-14932150D02*
X5797563Y-14932150D01*
X5797563Y-14932150D02*
X5816610Y-14941674D01*
X5816610Y-14941674D02*
X5826134Y-14960722D01*
X5826134Y-14960722D02*
X5826134Y-15065484D01*
X5826134Y-14960722D02*
X5835658Y-14941674D01*
X5835658Y-14941674D02*
X5854705Y-14932150D01*
X5854705Y-14932150D02*
X5883277Y-14932150D01*
X5883277Y-14932150D02*
X5902324Y-14941674D01*
X5902324Y-14941674D02*
X5911848Y-14960722D01*
X5911848Y-14960722D02*
X5911848Y-15065484D01*
X6007086Y-15065484D02*
X6007086Y-14932150D01*
X6007086Y-14951198D02*
X6016610Y-14941674D01*
X6016610Y-14941674D02*
X6035658Y-14932150D01*
X6035658Y-14932150D02*
X6064229Y-14932150D01*
X6064229Y-14932150D02*
X6083277Y-14941674D01*
X6083277Y-14941674D02*
X6092801Y-14960722D01*
X6092801Y-14960722D02*
X6092801Y-15065484D01*
X6092801Y-14960722D02*
X6102324Y-14941674D01*
X6102324Y-14941674D02*
X6121372Y-14932150D01*
X6121372Y-14932150D02*
X6149943Y-14932150D01*
X6149943Y-14932150D02*
X6168991Y-14941674D01*
X6168991Y-14941674D02*
X6178515Y-14960722D01*
X6178515Y-14960722D02*
X6178515Y-15065484D01*
X6568991Y-14855960D02*
X6397563Y-15113103D01*
X6826134Y-14865484D02*
X6845182Y-14865484D01*
X6845182Y-14865484D02*
X6864229Y-14875008D01*
X6864229Y-14875008D02*
X6873753Y-14884531D01*
X6873753Y-14884531D02*
X6883277Y-14903579D01*
X6883277Y-14903579D02*
X6892801Y-14941674D01*
X6892801Y-14941674D02*
X6892801Y-14989293D01*
X6892801Y-14989293D02*
X6883277Y-15027388D01*
X6883277Y-15027388D02*
X6873753Y-15046436D01*
X6873753Y-15046436D02*
X6864229Y-15055960D01*
X6864229Y-15055960D02*
X6845182Y-15065484D01*
X6845182Y-15065484D02*
X6826134Y-15065484D01*
X6826134Y-15065484D02*
X6807086Y-15055960D01*
X6807086Y-15055960D02*
X6797563Y-15046436D01*
X6797563Y-15046436D02*
X6788039Y-15027388D01*
X6788039Y-15027388D02*
X6778515Y-14989293D01*
X6778515Y-14989293D02*
X6778515Y-14941674D01*
X6778515Y-14941674D02*
X6788039Y-14903579D01*
X6788039Y-14903579D02*
X6797563Y-14884531D01*
X6797563Y-14884531D02*
X6807086Y-14875008D01*
X6807086Y-14875008D02*
X6826134Y-14865484D01*
X6978515Y-15046436D02*
X6988039Y-15055960D01*
X6988039Y-15055960D02*
X6978515Y-15065484D01*
X6978515Y-15065484D02*
X6968991Y-15055960D01*
X6968991Y-15055960D02*
X6978515Y-15046436D01*
X6978515Y-15046436D02*
X6978515Y-15065484D01*
X7111848Y-14865484D02*
X7130896Y-14865484D01*
X7130896Y-14865484D02*
X7149944Y-14875008D01*
X7149944Y-14875008D02*
X7159467Y-14884531D01*
X7159467Y-14884531D02*
X7168991Y-14903579D01*
X7168991Y-14903579D02*
X7178515Y-14941674D01*
X7178515Y-14941674D02*
X7178515Y-14989293D01*
X7178515Y-14989293D02*
X7168991Y-15027388D01*
X7168991Y-15027388D02*
X7159467Y-15046436D01*
X7159467Y-15046436D02*
X7149944Y-15055960D01*
X7149944Y-15055960D02*
X7130896Y-15065484D01*
X7130896Y-15065484D02*
X7111848Y-15065484D01*
X7111848Y-15065484D02*
X7092801Y-15055960D01*
X7092801Y-15055960D02*
X7083277Y-15046436D01*
X7083277Y-15046436D02*
X7073753Y-15027388D01*
X7073753Y-15027388D02*
X7064229Y-14989293D01*
X7064229Y-14989293D02*
X7064229Y-14941674D01*
X7064229Y-14941674D02*
X7073753Y-14903579D01*
X7073753Y-14903579D02*
X7083277Y-14884531D01*
X7083277Y-14884531D02*
X7092801Y-14875008D01*
X7092801Y-14875008D02*
X7111848Y-14865484D01*
X7349944Y-14865484D02*
X7311848Y-14865484D01*
X7311848Y-14865484D02*
X7292801Y-14875008D01*
X7292801Y-14875008D02*
X7283277Y-14884531D01*
X7283277Y-14884531D02*
X7264229Y-14913103D01*
X7264229Y-14913103D02*
X7254706Y-14951198D01*
X7254706Y-14951198D02*
X7254706Y-15027388D01*
X7254706Y-15027388D02*
X7264229Y-15046436D01*
X7264229Y-15046436D02*
X7273753Y-15055960D01*
X7273753Y-15055960D02*
X7292801Y-15065484D01*
X7292801Y-15065484D02*
X7330896Y-15065484D01*
X7330896Y-15065484D02*
X7349944Y-15055960D01*
X7349944Y-15055960D02*
X7359467Y-15046436D01*
X7359467Y-15046436D02*
X7368991Y-15027388D01*
X7368991Y-15027388D02*
X7368991Y-14979769D01*
X7368991Y-14979769D02*
X7359467Y-14960722D01*
X7359467Y-14960722D02*
X7349944Y-14951198D01*
X7349944Y-14951198D02*
X7330896Y-14941674D01*
X7330896Y-14941674D02*
X7292801Y-14941674D01*
X7292801Y-14941674D02*
X7273753Y-14951198D01*
X7273753Y-14951198D02*
X7264229Y-14960722D01*
X7264229Y-14960722D02*
X7254706Y-14979769D01*
X7435658Y-14865484D02*
X7568991Y-14865484D01*
X7568991Y-14865484D02*
X7483277Y-15065484D01*
X7683277Y-14865484D02*
X7702325Y-14865484D01*
X7702325Y-14865484D02*
X7721372Y-14875008D01*
X7721372Y-14875008D02*
X7730896Y-14884531D01*
X7730896Y-14884531D02*
X7740420Y-14903579D01*
X7740420Y-14903579D02*
X7749944Y-14941674D01*
X7749944Y-14941674D02*
X7749944Y-14989293D01*
X7749944Y-14989293D02*
X7740420Y-15027388D01*
X7740420Y-15027388D02*
X7730896Y-15046436D01*
X7730896Y-15046436D02*
X7721372Y-15055960D01*
X7721372Y-15055960D02*
X7702325Y-15065484D01*
X7702325Y-15065484D02*
X7683277Y-15065484D01*
X7683277Y-15065484D02*
X7664229Y-15055960D01*
X7664229Y-15055960D02*
X7654706Y-15046436D01*
X7654706Y-15046436D02*
X7645182Y-15027388D01*
X7645182Y-15027388D02*
X7635658Y-14989293D01*
X7635658Y-14989293D02*
X7635658Y-14941674D01*
X7635658Y-14941674D02*
X7645182Y-14903579D01*
X7645182Y-14903579D02*
X7654706Y-14884531D01*
X7654706Y-14884531D02*
X7664229Y-14875008D01*
X7664229Y-14875008D02*
X7683277Y-14865484D01*
X7826134Y-14865484D02*
X7826134Y-14903579D01*
X7902325Y-14865484D02*
X7902325Y-14903579D01*
X8197563Y-15141674D02*
X8188039Y-15132150D01*
X8188039Y-15132150D02*
X8168991Y-15103579D01*
X8168991Y-15103579D02*
X8159468Y-15084531D01*
X8159468Y-15084531D02*
X8149944Y-15055960D01*
X8149944Y-15055960D02*
X8140420Y-15008341D01*
X8140420Y-15008341D02*
X8140420Y-14970246D01*
X8140420Y-14970246D02*
X8149944Y-14922627D01*
X8149944Y-14922627D02*
X8159468Y-14894055D01*
X8159468Y-14894055D02*
X8168991Y-14875008D01*
X8168991Y-14875008D02*
X8188039Y-14846436D01*
X8188039Y-14846436D02*
X8197563Y-14836912D01*
X8359468Y-14932150D02*
X8359468Y-15065484D01*
X8311848Y-14855960D02*
X8264229Y-14998817D01*
X8264229Y-14998817D02*
X8388039Y-14998817D01*
X8616611Y-15065484D02*
X8616611Y-14865484D01*
X8702325Y-15065484D02*
X8702325Y-14960722D01*
X8702325Y-14960722D02*
X8692801Y-14941674D01*
X8692801Y-14941674D02*
X8673753Y-14932150D01*
X8673753Y-14932150D02*
X8645182Y-14932150D01*
X8645182Y-14932150D02*
X8626134Y-14941674D01*
X8626134Y-14941674D02*
X8616611Y-14951198D01*
X8826134Y-15065484D02*
X8807087Y-15055960D01*
X8807087Y-15055960D02*
X8797563Y-15046436D01*
X8797563Y-15046436D02*
X8788039Y-15027388D01*
X8788039Y-15027388D02*
X8788039Y-14970246D01*
X8788039Y-14970246D02*
X8797563Y-14951198D01*
X8797563Y-14951198D02*
X8807087Y-14941674D01*
X8807087Y-14941674D02*
X8826134Y-14932150D01*
X8826134Y-14932150D02*
X8854706Y-14932150D01*
X8854706Y-14932150D02*
X8873753Y-14941674D01*
X8873753Y-14941674D02*
X8883277Y-14951198D01*
X8883277Y-14951198D02*
X8892801Y-14970246D01*
X8892801Y-14970246D02*
X8892801Y-15027388D01*
X8892801Y-15027388D02*
X8883277Y-15046436D01*
X8883277Y-15046436D02*
X8873753Y-15055960D01*
X8873753Y-15055960D02*
X8854706Y-15065484D01*
X8854706Y-15065484D02*
X8826134Y-15065484D01*
X9007087Y-15065484D02*
X8988039Y-15055960D01*
X8988039Y-15055960D02*
X8978515Y-15036912D01*
X8978515Y-15036912D02*
X8978515Y-14865484D01*
X9159468Y-15055960D02*
X9140420Y-15065484D01*
X9140420Y-15065484D02*
X9102325Y-15065484D01*
X9102325Y-15065484D02*
X9083277Y-15055960D01*
X9083277Y-15055960D02*
X9073753Y-15036912D01*
X9073753Y-15036912D02*
X9073753Y-14960722D01*
X9073753Y-14960722D02*
X9083277Y-14941674D01*
X9083277Y-14941674D02*
X9102325Y-14932150D01*
X9102325Y-14932150D02*
X9140420Y-14932150D01*
X9140420Y-14932150D02*
X9159468Y-14941674D01*
X9159468Y-14941674D02*
X9168992Y-14960722D01*
X9168992Y-14960722D02*
X9168992Y-14979769D01*
X9168992Y-14979769D02*
X9073753Y-14998817D01*
X9245182Y-15055960D02*
X9264230Y-15065484D01*
X9264230Y-15065484D02*
X9302325Y-15065484D01*
X9302325Y-15065484D02*
X9321373Y-15055960D01*
X9321373Y-15055960D02*
X9330896Y-15036912D01*
X9330896Y-15036912D02*
X9330896Y-15027388D01*
X9330896Y-15027388D02*
X9321373Y-15008341D01*
X9321373Y-15008341D02*
X9302325Y-14998817D01*
X9302325Y-14998817D02*
X9273753Y-14998817D01*
X9273753Y-14998817D02*
X9254706Y-14989293D01*
X9254706Y-14989293D02*
X9245182Y-14970246D01*
X9245182Y-14970246D02*
X9245182Y-14960722D01*
X9245182Y-14960722D02*
X9254706Y-14941674D01*
X9254706Y-14941674D02*
X9273753Y-14932150D01*
X9273753Y-14932150D02*
X9302325Y-14932150D01*
X9302325Y-14932150D02*
X9321373Y-14941674D01*
X9397563Y-15141674D02*
X9407087Y-15132150D01*
X9407087Y-15132150D02*
X9426134Y-15103579D01*
X9426134Y-15103579D02*
X9435658Y-15084531D01*
X9435658Y-15084531D02*
X9445182Y-15055960D01*
X9445182Y-15055960D02*
X9454706Y-15008341D01*
X9454706Y-15008341D02*
X9454706Y-14970246D01*
X9454706Y-14970246D02*
X9445182Y-14922627D01*
X9445182Y-14922627D02*
X9435658Y-14894055D01*
X9435658Y-14894055D02*
X9426134Y-14875008D01*
X9426134Y-14875008D02*
X9407087Y-14846436D01*
X9407087Y-14846436D02*
X9397563Y-14836912D01*
X9759468Y-15141674D02*
X9749944Y-15132150D01*
X9749944Y-15132150D02*
X9730896Y-15103579D01*
X9730896Y-15103579D02*
X9721373Y-15084531D01*
X9721373Y-15084531D02*
X9711849Y-15055960D01*
X9711849Y-15055960D02*
X9702325Y-15008341D01*
X9702325Y-15008341D02*
X9702325Y-14970246D01*
X9702325Y-14970246D02*
X9711849Y-14922627D01*
X9711849Y-14922627D02*
X9721373Y-14894055D01*
X9721373Y-14894055D02*
X9730896Y-14875008D01*
X9730896Y-14875008D02*
X9749944Y-14846436D01*
X9749944Y-14846436D02*
X9759468Y-14836912D01*
X9835658Y-14932150D02*
X9835658Y-15065484D01*
X9835658Y-14951198D02*
X9845182Y-14941674D01*
X9845182Y-14941674D02*
X9864230Y-14932150D01*
X9864230Y-14932150D02*
X9892801Y-14932150D01*
X9892801Y-14932150D02*
X9911849Y-14941674D01*
X9911849Y-14941674D02*
X9921373Y-14960722D01*
X9921373Y-14960722D02*
X9921373Y-15065484D01*
X10045182Y-15065484D02*
X10026134Y-15055960D01*
X10026134Y-15055960D02*
X10016611Y-15046436D01*
X10016611Y-15046436D02*
X10007087Y-15027388D01*
X10007087Y-15027388D02*
X10007087Y-14970246D01*
X10007087Y-14970246D02*
X10016611Y-14951198D01*
X10016611Y-14951198D02*
X10026134Y-14941674D01*
X10026134Y-14941674D02*
X10045182Y-14932150D01*
X10045182Y-14932150D02*
X10073754Y-14932150D01*
X10073754Y-14932150D02*
X10092801Y-14941674D01*
X10092801Y-14941674D02*
X10102325Y-14951198D01*
X10102325Y-14951198D02*
X10111849Y-14970246D01*
X10111849Y-14970246D02*
X10111849Y-15027388D01*
X10111849Y-15027388D02*
X10102325Y-15046436D01*
X10102325Y-15046436D02*
X10092801Y-15055960D01*
X10092801Y-15055960D02*
X10073754Y-15065484D01*
X10073754Y-15065484D02*
X10045182Y-15065484D01*
X10168992Y-14932150D02*
X10245182Y-14932150D01*
X10197563Y-14865484D02*
X10197563Y-15036912D01*
X10197563Y-15036912D02*
X10207087Y-15055960D01*
X10207087Y-15055960D02*
X10226134Y-15065484D01*
X10226134Y-15065484D02*
X10245182Y-15065484D01*
X10464230Y-14932150D02*
X10464230Y-15132150D01*
X10464230Y-14941674D02*
X10483277Y-14932150D01*
X10483277Y-14932150D02*
X10521373Y-14932150D01*
X10521373Y-14932150D02*
X10540420Y-14941674D01*
X10540420Y-14941674D02*
X10549944Y-14951198D01*
X10549944Y-14951198D02*
X10559468Y-14970246D01*
X10559468Y-14970246D02*
X10559468Y-15027388D01*
X10559468Y-15027388D02*
X10549944Y-15046436D01*
X10549944Y-15046436D02*
X10540420Y-15055960D01*
X10540420Y-15055960D02*
X10521373Y-15065484D01*
X10521373Y-15065484D02*
X10483277Y-15065484D01*
X10483277Y-15065484D02*
X10464230Y-15055960D01*
X10673754Y-15065484D02*
X10654706Y-15055960D01*
X10654706Y-15055960D02*
X10645182Y-15036912D01*
X10645182Y-15036912D02*
X10645182Y-14865484D01*
X10835658Y-15065484D02*
X10835658Y-14960722D01*
X10835658Y-14960722D02*
X10826135Y-14941674D01*
X10826135Y-14941674D02*
X10807087Y-14932150D01*
X10807087Y-14932150D02*
X10768992Y-14932150D01*
X10768992Y-14932150D02*
X10749944Y-14941674D01*
X10835658Y-15055960D02*
X10816611Y-15065484D01*
X10816611Y-15065484D02*
X10768992Y-15065484D01*
X10768992Y-15065484D02*
X10749944Y-15055960D01*
X10749944Y-15055960D02*
X10740420Y-15036912D01*
X10740420Y-15036912D02*
X10740420Y-15017865D01*
X10740420Y-15017865D02*
X10749944Y-14998817D01*
X10749944Y-14998817D02*
X10768992Y-14989293D01*
X10768992Y-14989293D02*
X10816611Y-14989293D01*
X10816611Y-14989293D02*
X10835658Y-14979769D01*
X10902325Y-14932150D02*
X10978515Y-14932150D01*
X10930896Y-14865484D02*
X10930896Y-15036912D01*
X10930896Y-15036912D02*
X10940420Y-15055960D01*
X10940420Y-15055960D02*
X10959468Y-15065484D01*
X10959468Y-15065484D02*
X10978515Y-15065484D01*
X11121373Y-15055960D02*
X11102325Y-15065484D01*
X11102325Y-15065484D02*
X11064230Y-15065484D01*
X11064230Y-15065484D02*
X11045182Y-15055960D01*
X11045182Y-15055960D02*
X11035658Y-15036912D01*
X11035658Y-15036912D02*
X11035658Y-14960722D01*
X11035658Y-14960722D02*
X11045182Y-14941674D01*
X11045182Y-14941674D02*
X11064230Y-14932150D01*
X11064230Y-14932150D02*
X11102325Y-14932150D01*
X11102325Y-14932150D02*
X11121373Y-14941674D01*
X11121373Y-14941674D02*
X11130896Y-14960722D01*
X11130896Y-14960722D02*
X11130896Y-14979769D01*
X11130896Y-14979769D02*
X11035658Y-14998817D01*
X11302325Y-15065484D02*
X11302325Y-14865484D01*
X11302325Y-15055960D02*
X11283277Y-15065484D01*
X11283277Y-15065484D02*
X11245182Y-15065484D01*
X11245182Y-15065484D02*
X11226134Y-15055960D01*
X11226134Y-15055960D02*
X11216611Y-15046436D01*
X11216611Y-15046436D02*
X11207087Y-15027388D01*
X11207087Y-15027388D02*
X11207087Y-14970246D01*
X11207087Y-14970246D02*
X11216611Y-14951198D01*
X11216611Y-14951198D02*
X11226134Y-14941674D01*
X11226134Y-14941674D02*
X11245182Y-14932150D01*
X11245182Y-14932150D02*
X11283277Y-14932150D01*
X11283277Y-14932150D02*
X11302325Y-14941674D01*
X11378515Y-15141674D02*
X11388039Y-15132150D01*
X11388039Y-15132150D02*
X11407087Y-15103579D01*
X11407087Y-15103579D02*
X11416611Y-15084531D01*
X11416611Y-15084531D02*
X11426134Y-15055960D01*
X11426134Y-15055960D02*
X11435658Y-15008341D01*
X11435658Y-15008341D02*
X11435658Y-14970246D01*
X11435658Y-14970246D02*
X11426134Y-14922627D01*
X11426134Y-14922627D02*
X11416611Y-14894055D01*
X11416611Y-14894055D02*
X11407087Y-14875008D01*
X11407087Y-14875008D02*
X11388039Y-14846436D01*
X11388039Y-14846436D02*
X11378515Y-14836912D01*
M02*
