%TF.GenerationSoftware,KiCad,Pcbnew,8.0.3*%
%TF.CreationDate,2024-08-08T10:10:12-07:00*%
%TF.ProjectId,VULED,56554c45-442e-46b6-9963-61645f706362,rev?*%
%TF.SameCoordinates,Original*%
%TF.FileFunction,Copper,L2,Bot*%
%TF.FilePolarity,Positive*%
%FSLAX46Y46*%
G04 Gerber Fmt 4.6, Leading zero omitted, Abs format (unit mm)*
G04 Created by KiCad (PCBNEW 8.0.3) date 2024-08-08 10:10:12*
%MOMM*%
%LPD*%
G01*
G04 APERTURE LIST*
%TA.AperFunction,ComponentPad*%
%ADD10O,4.400000X2.200000*%
%TD*%
%TA.AperFunction,ComponentPad*%
%ADD11O,3.800000X1.900000*%
%TD*%
%TA.AperFunction,ComponentPad*%
%ADD12O,1.900000X3.800000*%
%TD*%
%TA.AperFunction,ComponentPad*%
%ADD13O,1.600000X2.200000*%
%TD*%
%TA.AperFunction,ComponentPad*%
%ADD14C,1.530000*%
%TD*%
%TA.AperFunction,ComponentPad*%
%ADD15C,4.000000*%
%TD*%
%TA.AperFunction,ComponentPad*%
%ADD16C,1.701800*%
%TD*%
%TA.AperFunction,SMDPad,CuDef*%
%ADD17R,1.397000X0.812800*%
%TD*%
%TA.AperFunction,SMDPad,CuDef*%
%ADD18R,0.812800X1.397000*%
%TD*%
%TA.AperFunction,ViaPad*%
%ADD19C,0.600000*%
%TD*%
%TA.AperFunction,ViaPad*%
%ADD20C,0.700000*%
%TD*%
%TA.AperFunction,ViaPad*%
%ADD21C,1.000000*%
%TD*%
%TA.AperFunction,Conductor*%
%ADD22C,0.400000*%
%TD*%
%TA.AperFunction,Conductor*%
%ADD23C,0.200000*%
%TD*%
G04 APERTURE END LIST*
D10*
%TO.P,J2,1*%
%TO.N,PWRIN*%
X58010000Y-68920000D03*
D11*
%TO.P,J2,2*%
%TO.N,GND*%
X58010000Y-62965000D03*
D12*
%TO.P,J2,3*%
X53320000Y-66215000D03*
%TD*%
D13*
%TO.P,J1,1*%
%TO.N,GND*%
X131814876Y-63319566D03*
%TO.P,J1,2*%
%TO.N,Net-(J1-Pad2)*%
X136044876Y-68729566D03*
%TO.P,J1,3*%
%TO.N,Net-(J1-Pad3)*%
X130564876Y-68739566D03*
%TD*%
D14*
%TO.P,J3,1,Pin_1*%
%TO.N,GND*%
X80060000Y-80040000D03*
%TD*%
D15*
%TO.P,H1,*%
%TO.N,*%
X142336191Y-137046191D03*
%TD*%
D14*
%TO.P,J6,1,Pin_1*%
%TO.N,/AUDIO*%
X121415000Y-61845000D03*
%TD*%
D16*
%TO.P,RV1,1,1*%
%TO.N,GND*%
X83980158Y-77590035D03*
%TO.P,RV1,2,2*%
%TO.N,Net-(U1A-+)*%
X83980158Y-81090037D03*
%TO.P,RV1,3,3*%
%TO.N,Net-(R1-Pad2)*%
X127480147Y-77590035D03*
%TD*%
D15*
%TO.P,H4,*%
%TO.N,*%
X49885000Y-58380000D03*
%TD*%
%TO.P,H3,*%
%TO.N,*%
X142515000Y-58510000D03*
%TD*%
%TO.P,H2,*%
%TO.N,*%
X49850000Y-137075000D03*
%TD*%
D14*
%TO.P,J4,1,Pin_1*%
%TO.N,+5V*%
X84515000Y-58520000D03*
%TD*%
%TO.P,J5,1,Pin_1*%
%TO.N,+12V*%
X71580000Y-79995000D03*
%TD*%
%TO.P,J7,1,Pin_1*%
%TO.N,PWRIN*%
X58000000Y-77035000D03*
%TD*%
D17*
%TO.P,R10,1*%
%TO.N,+1.1V*%
X91705150Y-65203663D03*
%TO.P,R10,2*%
%TO.N,+2.2V*%
X91705150Y-66956263D03*
%TD*%
D18*
%TO.P,R9,1*%
%TO.N,+2.2V*%
X97738850Y-66184963D03*
%TO.P,R9,2*%
%TO.N,+3.3V*%
X99491450Y-66184963D03*
%TD*%
%TO.P,R11,1*%
%TO.N,GND*%
X93848850Y-59909963D03*
%TO.P,R11,2*%
%TO.N,+1.1V*%
X95601450Y-59909963D03*
%TD*%
D17*
%TO.P,R8,1*%
%TO.N,+3.3V*%
X105055150Y-66228663D03*
%TO.P,R8,2*%
%TO.N,+4.4V*%
X105055150Y-67981263D03*
%TD*%
D18*
%TO.P,R7,1*%
%TO.N,+4.4V*%
X110909850Y-66129563D03*
%TO.P,R7,2*%
%TO.N,+5.5V*%
X112662450Y-66129563D03*
%TD*%
D17*
%TO.P,R6,1*%
%TO.N,+5.5V*%
X118081150Y-67020863D03*
%TO.P,R6,2*%
%TO.N,+6.6V*%
X118081150Y-65268263D03*
%TD*%
D19*
%TO.N,GND*%
X92955150Y-61289963D03*
X98165150Y-71579963D03*
X90974999Y-88730000D03*
D20*
X106588850Y-61778663D03*
D19*
X118846450Y-70745000D03*
X66345000Y-63445000D03*
D21*
X75115000Y-72010000D03*
D19*
X105484999Y-88625000D03*
X68480000Y-80745000D03*
X74564999Y-88700000D03*
X113410150Y-73529963D03*
D20*
X112865150Y-60179963D03*
D19*
X53845000Y-88590000D03*
X99285150Y-61384963D03*
X120144999Y-88670000D03*
D20*
X69110000Y-61735000D03*
D19*
X134419999Y-88740000D03*
D20*
X112040150Y-61469963D03*
%TO.N,+12V*%
X98135150Y-61539963D03*
X115246150Y-70539963D03*
X75960000Y-78855000D03*
D19*
%TO.N,Net-(Q2-G)*%
X117110000Y-73490000D03*
X120165000Y-77365000D03*
D20*
%TO.N,/AUDIO*%
X114615000Y-61775000D03*
X107240150Y-65999963D03*
X100655150Y-61579963D03*
D19*
%TO.N,Net-(U1A-+)*%
X110645150Y-71150000D03*
D20*
%TO.N,+6.6V*%
X115885000Y-65605000D03*
X90955000Y-73410000D03*
X113665000Y-66885000D03*
%TO.N,+5.5V*%
X114591150Y-67059563D03*
%TO.N,+4.4V*%
X109260000Y-65705000D03*
%TO.N,+3.3V*%
X100670150Y-65404963D03*
%TO.N,+2.2V*%
X94895000Y-66871562D03*
%TO.N,+1.1V*%
X94640150Y-65214963D03*
D19*
X95575150Y-61319963D03*
%TD*%
D22*
%TO.N,GND*%
X80110000Y-80040000D02*
X82559965Y-77590035D01*
X82559965Y-77590035D02*
X83980158Y-77590035D01*
X80060000Y-80040000D02*
X80110000Y-80040000D01*
%TO.N,+12V*%
X119079650Y-63889463D02*
X118800150Y-63609963D01*
X90606650Y-64397263D02*
X92983950Y-62019963D01*
X99395113Y-60280000D02*
X98135150Y-61539963D01*
X77430000Y-78855000D02*
X90606650Y-65678350D01*
X92983950Y-62019963D02*
X97655150Y-62019963D01*
X118800150Y-63609963D02*
X112255000Y-63609963D01*
X115246150Y-70539963D02*
X118011621Y-70539963D01*
X118011621Y-70539963D02*
X119935150Y-68616434D01*
X119079650Y-63909463D02*
X119079650Y-63889463D01*
X108925037Y-60280000D02*
X99395113Y-60280000D01*
X119935150Y-64764963D02*
X119079650Y-63909463D01*
X75960000Y-78855000D02*
X77430000Y-78855000D01*
X90606650Y-65678350D02*
X90606650Y-64397263D01*
X119935150Y-68616434D02*
X119935150Y-64764963D01*
X112255000Y-63609963D02*
X108925037Y-60280000D01*
X97655150Y-62019963D02*
X98135150Y-61539963D01*
%TO.N,Net-(Q2-G)*%
X119210000Y-74860000D02*
X117455000Y-74860000D01*
X120165000Y-77365000D02*
X120165000Y-75815000D01*
X117045000Y-74450000D02*
X117045000Y-73555000D01*
X117045000Y-73555000D02*
X117110000Y-73490000D01*
X117455000Y-74860000D02*
X117045000Y-74450000D01*
X120165000Y-75815000D02*
X119210000Y-74860000D01*
%TO.N,/AUDIO*%
X121415000Y-61845000D02*
X114685000Y-61845000D01*
X105115150Y-61579963D02*
X100655150Y-61579963D01*
X107240150Y-65999963D02*
X107195150Y-65954963D01*
X114685000Y-61845000D02*
X114615000Y-61775000D01*
X107195150Y-65954963D02*
X107195150Y-63659963D01*
X107195150Y-63659963D02*
X105115150Y-61579963D01*
%TO.N,Net-(U1A-+)*%
X110645150Y-80169850D02*
X109724963Y-81090037D01*
X110645150Y-71150000D02*
X110645150Y-80169850D01*
X109724963Y-81090037D02*
X83980158Y-81090037D01*
%TO.N,+6.6V*%
X113006937Y-67228063D02*
X113321937Y-67228063D01*
X113321937Y-67228063D02*
X113665000Y-66885000D01*
X106825000Y-73410000D02*
X113006937Y-67228063D01*
X90955000Y-73410000D02*
X106690000Y-73410000D01*
X116221737Y-65268263D02*
X118081150Y-65268263D01*
X106690000Y-73410000D02*
X106825000Y-73410000D01*
X115885000Y-65605000D02*
X116221737Y-65268263D01*
%TO.N,+5.5V*%
X114301150Y-66129563D02*
X114611150Y-66439563D01*
X114611150Y-67039563D02*
X114591150Y-67059563D01*
X114611150Y-66439563D02*
X114611150Y-67039563D01*
X112662450Y-66129563D02*
X114301150Y-66129563D01*
X118081150Y-67020863D02*
X115192450Y-67020863D01*
X115192450Y-67020863D02*
X114611150Y-66439563D01*
%TO.N,+4.4V*%
X108690150Y-66619963D02*
X110485150Y-66619963D01*
X105055150Y-67981263D02*
X107328850Y-67981263D01*
X109684563Y-66129563D02*
X110909850Y-66129563D01*
X109260000Y-65705000D02*
X109684563Y-66129563D01*
X107328850Y-67981263D02*
X108690150Y-66619963D01*
%TO.N,+3.3V*%
X99940150Y-66184963D02*
X100245150Y-66184963D01*
X100250150Y-66189963D02*
X105016450Y-66189963D01*
X100670150Y-65894963D02*
X100670150Y-65404963D01*
X105016450Y-66189963D02*
X105055150Y-66228663D01*
X100545150Y-66019963D02*
X100670150Y-65894963D01*
X100380150Y-66184963D02*
X100545150Y-66019963D01*
X99491450Y-66184963D02*
X99940150Y-66184963D01*
X100245150Y-66184963D02*
X100380150Y-66184963D01*
X100245150Y-66184963D02*
X100250150Y-66189963D01*
%TO.N,+2.2V*%
X94895000Y-66871562D02*
X94878401Y-66854963D01*
X94430150Y-66184963D02*
X93760150Y-66854963D01*
X91705150Y-66956263D02*
X91806450Y-66854963D01*
X94878401Y-66854963D02*
X93760150Y-66854963D01*
X91806450Y-66854963D02*
X93760150Y-66854963D01*
X97738850Y-66184963D02*
X94430150Y-66184963D01*
%TO.N,+1.1V*%
X91705150Y-65203663D02*
X94628850Y-65203663D01*
D23*
X95586450Y-59624963D02*
X95586450Y-61308663D01*
X95586450Y-61308663D02*
X95575150Y-61319963D01*
D22*
X94628850Y-65203663D02*
X94640150Y-65214963D01*
%TD*%
%TA.AperFunction,Conductor*%
%TO.N,GND*%
G36*
X108650557Y-61000185D02*
G01*
X108671199Y-61016819D01*
X111808453Y-64154074D01*
X111808454Y-64154075D01*
X111923192Y-64230740D01*
X112035064Y-64277078D01*
X112050672Y-64283543D01*
X112050676Y-64283543D01*
X112050677Y-64283544D01*
X112186003Y-64310463D01*
X112186006Y-64310463D01*
X112186007Y-64310463D01*
X116922501Y-64310463D01*
X116989540Y-64330148D01*
X117035295Y-64382952D01*
X117045239Y-64452110D01*
X117021768Y-64508772D01*
X117014804Y-64518074D01*
X116958872Y-64559945D01*
X116915539Y-64567763D01*
X116152741Y-64567763D01*
X116017414Y-64594681D01*
X116017404Y-64594684D01*
X115889928Y-64647486D01*
X115775192Y-64724150D01*
X115775186Y-64724154D01*
X115757109Y-64742232D01*
X115695785Y-64775716D01*
X115695212Y-64775839D01*
X115620732Y-64791671D01*
X115620728Y-64791672D01*
X115457408Y-64864387D01*
X115312768Y-64969475D01*
X115193140Y-65102336D01*
X115103750Y-65257164D01*
X115103747Y-65257170D01*
X115048504Y-65427192D01*
X115048503Y-65427194D01*
X115032017Y-65584051D01*
X115005432Y-65648666D01*
X114948135Y-65688650D01*
X114878316Y-65691310D01*
X114821015Y-65658770D01*
X114747695Y-65585450D01*
X114632957Y-65508785D01*
X114505482Y-65455984D01*
X114505472Y-65455981D01*
X114370146Y-65429063D01*
X114370144Y-65429063D01*
X114370143Y-65429063D01*
X113685665Y-65429063D01*
X113618626Y-65409378D01*
X113572871Y-65356574D01*
X113565821Y-65330872D01*
X113564726Y-65331131D01*
X113562942Y-65323583D01*
X113558034Y-65310425D01*
X113538170Y-65257165D01*
X113512647Y-65188734D01*
X113512643Y-65188727D01*
X113426397Y-65073518D01*
X113426394Y-65073515D01*
X113311185Y-64987269D01*
X113311178Y-64987265D01*
X113176332Y-64936971D01*
X113176333Y-64936971D01*
X113116733Y-64930564D01*
X113116731Y-64930563D01*
X113116723Y-64930563D01*
X113116714Y-64930563D01*
X112208179Y-64930563D01*
X112208173Y-64930564D01*
X112148566Y-64936971D01*
X112013721Y-64987265D01*
X112013714Y-64987269D01*
X111898505Y-65073515D01*
X111898503Y-65073517D01*
X111885415Y-65091001D01*
X111829481Y-65132871D01*
X111759789Y-65137854D01*
X111698467Y-65104367D01*
X111686885Y-65091001D01*
X111673796Y-65073517D01*
X111673794Y-65073515D01*
X111558585Y-64987269D01*
X111558578Y-64987265D01*
X111423732Y-64936971D01*
X111423733Y-64936971D01*
X111364133Y-64930564D01*
X111364131Y-64930563D01*
X111364123Y-64930563D01*
X111364114Y-64930563D01*
X110455579Y-64930563D01*
X110455573Y-64930564D01*
X110395966Y-64936971D01*
X110261121Y-64987265D01*
X110261114Y-64987269D01*
X110145905Y-65073515D01*
X110095595Y-65140720D01*
X110039661Y-65182591D01*
X109969969Y-65187574D01*
X109908646Y-65154088D01*
X109904179Y-65149380D01*
X109832235Y-65069478D01*
X109832232Y-65069476D01*
X109832231Y-65069475D01*
X109832230Y-65069474D01*
X109687593Y-64964388D01*
X109524267Y-64891671D01*
X109524265Y-64891670D01*
X109395906Y-64864387D01*
X109349391Y-64854500D01*
X109170609Y-64854500D01*
X109139954Y-64861015D01*
X108995733Y-64891670D01*
X108995728Y-64891672D01*
X108832408Y-64964387D01*
X108687768Y-65069475D01*
X108568140Y-65202336D01*
X108478750Y-65357164D01*
X108478747Y-65357170D01*
X108423504Y-65527192D01*
X108423503Y-65527194D01*
X108409825Y-65657331D01*
X108404815Y-65705000D01*
X108412992Y-65782803D01*
X108422897Y-65877033D01*
X108410328Y-65945763D01*
X108362596Y-65996787D01*
X108358420Y-65999133D01*
X108283262Y-66049352D01*
X108216584Y-66070229D01*
X108149204Y-66051744D01*
X108102514Y-65999764D01*
X108091052Y-65959215D01*
X108076647Y-65822160D01*
X108033267Y-65688650D01*
X108021402Y-65652133D01*
X108021399Y-65652127D01*
X107932010Y-65497299D01*
X107932005Y-65497292D01*
X107927499Y-65492288D01*
X107897270Y-65429296D01*
X107895650Y-65409317D01*
X107895650Y-63590967D01*
X107895649Y-63590965D01*
X107868731Y-63455641D01*
X107868730Y-63455637D01*
X107868730Y-63455635D01*
X107863463Y-63442920D01*
X107815925Y-63328152D01*
X107739264Y-63213420D01*
X107739262Y-63213417D01*
X105718026Y-61192181D01*
X105684541Y-61130858D01*
X105689525Y-61061166D01*
X105731397Y-61005233D01*
X105796861Y-60980816D01*
X105805707Y-60980500D01*
X108583518Y-60980500D01*
X108650557Y-61000185D01*
G37*
%TD.AperFunction*%
%TA.AperFunction,Conductor*%
G36*
X99871442Y-61000185D02*
G01*
X99917197Y-61052989D01*
X99927141Y-61122147D01*
X99911791Y-61166498D01*
X99886772Y-61209834D01*
X99873899Y-61232130D01*
X99873897Y-61232133D01*
X99818654Y-61402155D01*
X99818653Y-61402157D01*
X99799965Y-61579963D01*
X99818653Y-61757768D01*
X99818654Y-61757770D01*
X99873897Y-61927792D01*
X99873900Y-61927798D01*
X99963291Y-62082628D01*
X99999488Y-62122829D01*
X100082914Y-62215484D01*
X100082917Y-62215486D01*
X100082920Y-62215489D01*
X100227557Y-62320575D01*
X100390883Y-62393292D01*
X100565759Y-62430463D01*
X100565760Y-62430463D01*
X100744539Y-62430463D01*
X100744541Y-62430463D01*
X100919417Y-62393292D01*
X101082743Y-62320575D01*
X101087964Y-62316782D01*
X101105358Y-62304145D01*
X101171165Y-62280665D01*
X101178243Y-62280463D01*
X104773631Y-62280463D01*
X104840670Y-62300148D01*
X104861312Y-62316782D01*
X106458331Y-63913801D01*
X106491816Y-63975124D01*
X106494650Y-64001482D01*
X106494650Y-65556981D01*
X106478038Y-65618979D01*
X106458901Y-65652125D01*
X106456254Y-65658071D01*
X106454593Y-65657331D01*
X106420131Y-65707722D01*
X106355770Y-65734914D01*
X106286925Y-65722993D01*
X106235454Y-65675744D01*
X106225465Y-65655054D01*
X106197447Y-65579934D01*
X106197443Y-65579927D01*
X106111197Y-65464718D01*
X106111194Y-65464715D01*
X105995985Y-65378469D01*
X105995978Y-65378465D01*
X105861132Y-65328171D01*
X105861133Y-65328171D01*
X105801533Y-65321764D01*
X105801531Y-65321763D01*
X105801523Y-65321763D01*
X105801514Y-65321763D01*
X104308779Y-65321763D01*
X104308773Y-65321764D01*
X104249166Y-65328171D01*
X104114321Y-65378465D01*
X104114318Y-65378467D01*
X104073027Y-65409378D01*
X103999104Y-65464717D01*
X103999102Y-65464718D01*
X103999089Y-65464729D01*
X103933624Y-65489147D01*
X103924777Y-65489463D01*
X101645866Y-65489463D01*
X101578827Y-65469778D01*
X101533072Y-65416974D01*
X101522546Y-65378429D01*
X101506647Y-65227160D01*
X101462406Y-65091001D01*
X101451402Y-65057133D01*
X101451399Y-65057127D01*
X101443051Y-65042667D01*
X101362009Y-64902298D01*
X101291797Y-64824320D01*
X101242385Y-64769441D01*
X101242382Y-64769439D01*
X101242381Y-64769438D01*
X101242380Y-64769437D01*
X101097743Y-64664351D01*
X100934417Y-64591634D01*
X100934415Y-64591633D01*
X100788554Y-64560630D01*
X100759541Y-64554463D01*
X100580759Y-64554463D01*
X100554968Y-64559945D01*
X100405883Y-64591633D01*
X100405878Y-64591635D01*
X100242558Y-64664350D01*
X100097918Y-64769438D01*
X99978291Y-64902297D01*
X99965782Y-64923964D01*
X99915214Y-64972179D01*
X99858395Y-64985963D01*
X99037179Y-64985963D01*
X99037173Y-64985964D01*
X98977566Y-64992371D01*
X98842721Y-65042665D01*
X98842714Y-65042669D01*
X98727505Y-65128915D01*
X98727503Y-65128917D01*
X98714415Y-65146401D01*
X98658481Y-65188271D01*
X98588789Y-65193254D01*
X98527467Y-65159767D01*
X98515885Y-65146401D01*
X98502796Y-65128917D01*
X98502794Y-65128915D01*
X98387585Y-65042669D01*
X98387578Y-65042665D01*
X98252732Y-64992371D01*
X98252733Y-64992371D01*
X98193133Y-64985964D01*
X98193131Y-64985963D01*
X98193123Y-64985963D01*
X98193114Y-64985963D01*
X97284579Y-64985963D01*
X97284573Y-64985964D01*
X97224966Y-64992371D01*
X97090121Y-65042665D01*
X97090114Y-65042669D01*
X96974905Y-65128915D01*
X96974902Y-65128918D01*
X96888656Y-65244127D01*
X96888652Y-65244134D01*
X96838358Y-65378980D01*
X96836576Y-65386525D01*
X96833887Y-65385889D01*
X96812171Y-65438288D01*
X96754771Y-65478125D01*
X96715635Y-65484463D01*
X95604725Y-65484463D01*
X95537686Y-65464778D01*
X95491931Y-65411974D01*
X95481404Y-65347503D01*
X95495335Y-65214963D01*
X95476647Y-65037160D01*
X95444094Y-64936972D01*
X95421402Y-64867133D01*
X95421399Y-64867127D01*
X95403818Y-64836675D01*
X95332009Y-64712298D01*
X95273652Y-64647486D01*
X95212385Y-64579441D01*
X95212382Y-64579439D01*
X95212381Y-64579438D01*
X95212380Y-64579437D01*
X95067743Y-64474351D01*
X94904417Y-64401634D01*
X94904415Y-64401633D01*
X94776744Y-64374496D01*
X94729541Y-64364463D01*
X94550759Y-64364463D01*
X94520104Y-64370978D01*
X94375883Y-64401633D01*
X94375878Y-64401635D01*
X94212558Y-64474351D01*
X94212554Y-64474353D01*
X94205495Y-64479482D01*
X94139688Y-64502961D01*
X94132611Y-64503163D01*
X92870761Y-64503163D01*
X92803722Y-64483478D01*
X92771493Y-64453472D01*
X92761198Y-64439720D01*
X92761196Y-64439717D01*
X92752426Y-64433152D01*
X92645985Y-64353469D01*
X92645978Y-64353465D01*
X92511132Y-64303171D01*
X92511133Y-64303171D01*
X92451533Y-64296764D01*
X92451531Y-64296763D01*
X92451523Y-64296763D01*
X92451515Y-64296763D01*
X91997168Y-64296763D01*
X91930129Y-64277078D01*
X91884374Y-64224274D01*
X91874430Y-64155116D01*
X91903455Y-64091560D01*
X91909487Y-64085082D01*
X92491378Y-63503192D01*
X93237788Y-62756782D01*
X93299111Y-62723297D01*
X93325469Y-62720463D01*
X97724146Y-62720463D01*
X97815190Y-62702352D01*
X97859478Y-62693543D01*
X97938228Y-62660924D01*
X97986957Y-62640740D01*
X97986958Y-62640739D01*
X97986961Y-62640738D01*
X98101693Y-62564077D01*
X98263038Y-62402730D01*
X98324359Y-62369246D01*
X98324503Y-62369214D01*
X98399417Y-62353292D01*
X98562743Y-62280575D01*
X98707380Y-62175489D01*
X98709918Y-62172671D01*
X98754795Y-62122829D01*
X98827009Y-62042628D01*
X98916400Y-61887798D01*
X98971647Y-61717766D01*
X98971647Y-61717764D01*
X98973655Y-61711585D01*
X98976460Y-61712496D01*
X99003454Y-61662317D01*
X99003811Y-61661957D01*
X99648951Y-61016819D01*
X99710274Y-60983334D01*
X99736632Y-60980500D01*
X99804403Y-60980500D01*
X99871442Y-61000185D01*
G37*
%TD.AperFunction*%
%TA.AperFunction,Conductor*%
G36*
X142432921Y-55216689D02*
G01*
X142432929Y-55216691D01*
X142442916Y-55216691D01*
X142496979Y-55216691D01*
X142505564Y-55216691D01*
X142512054Y-55216861D01*
X142827875Y-55233413D01*
X142840782Y-55234769D01*
X143149937Y-55283736D01*
X143162609Y-55286429D01*
X143464971Y-55367447D01*
X143477297Y-55371452D01*
X143769531Y-55483631D01*
X143781367Y-55488900D01*
X144060284Y-55631015D01*
X144071490Y-55637485D01*
X144334021Y-55807975D01*
X144344511Y-55815597D01*
X144587767Y-56012582D01*
X144597412Y-56021267D01*
X144818732Y-56242587D01*
X144827417Y-56252232D01*
X145024402Y-56495488D01*
X145032027Y-56505982D01*
X145202510Y-56768503D01*
X145208987Y-56779722D01*
X145340247Y-57037334D01*
X145351094Y-57058622D01*
X145356373Y-57070479D01*
X145468544Y-57362692D01*
X145472555Y-57375037D01*
X145553567Y-57677379D01*
X145556265Y-57690074D01*
X145605229Y-57999216D01*
X145606586Y-58012124D01*
X145623129Y-58327778D01*
X145623299Y-58334550D01*
X145444669Y-136979977D01*
X145444500Y-136982518D01*
X145444500Y-137051752D01*
X145444330Y-137058242D01*
X145427777Y-137374067D01*
X145426420Y-137386974D01*
X145377458Y-137696115D01*
X145374760Y-137708812D01*
X145293747Y-138011157D01*
X145289736Y-138023501D01*
X145177566Y-138315713D01*
X145172287Y-138327570D01*
X145030184Y-138606464D01*
X145023698Y-138617697D01*
X144904711Y-138800921D01*
X144853224Y-138880204D01*
X144845595Y-138890704D01*
X144648611Y-139133960D01*
X144639926Y-139143605D01*
X144418605Y-139364926D01*
X144408960Y-139373611D01*
X144165704Y-139570595D01*
X144155204Y-139578224D01*
X144147505Y-139583224D01*
X143892697Y-139748698D01*
X143881464Y-139755184D01*
X143602570Y-139897287D01*
X143590713Y-139902566D01*
X143298501Y-140014736D01*
X143286157Y-140018747D01*
X142983812Y-140099760D01*
X142971115Y-140102458D01*
X142661974Y-140151420D01*
X142649067Y-140152777D01*
X142333244Y-140169329D01*
X142326779Y-140169499D01*
X142321931Y-140169499D01*
X142321906Y-140169500D01*
X142256539Y-140169500D01*
X142256483Y-140169503D01*
X49873040Y-140174500D01*
X49868246Y-140174500D01*
X49861756Y-140174330D01*
X49545932Y-140157777D01*
X49533025Y-140156420D01*
X49223884Y-140107458D01*
X49211187Y-140104760D01*
X48908842Y-140023747D01*
X48896498Y-140019736D01*
X48604286Y-139907566D01*
X48592429Y-139902287D01*
X48582616Y-139897287D01*
X48313529Y-139760180D01*
X48302310Y-139753703D01*
X48039789Y-139583220D01*
X48029295Y-139575595D01*
X47786039Y-139378611D01*
X47776394Y-139369926D01*
X47555073Y-139148605D01*
X47546388Y-139138960D01*
X47349404Y-138895704D01*
X47341782Y-138885214D01*
X47171292Y-138622683D01*
X47164822Y-138611477D01*
X47022707Y-138332560D01*
X47017438Y-138320724D01*
X46905261Y-138028495D01*
X46901252Y-138016157D01*
X46899912Y-138011157D01*
X46820237Y-137713806D01*
X46817541Y-137701115D01*
X46812497Y-137669270D01*
X46768579Y-137391974D01*
X46767222Y-137379067D01*
X46760472Y-137250271D01*
X46751285Y-137074994D01*
X47344556Y-137074994D01*
X47344556Y-137075005D01*
X47364310Y-137389004D01*
X47364311Y-137389011D01*
X47364312Y-137389015D01*
X47422894Y-137696115D01*
X47423270Y-137698083D01*
X47520497Y-137997316D01*
X47520499Y-137997321D01*
X47654461Y-138282003D01*
X47654464Y-138282009D01*
X47823051Y-138547661D01*
X47823054Y-138547665D01*
X48023606Y-138790090D01*
X48023608Y-138790092D01*
X48023610Y-138790094D01*
X48222290Y-138976667D01*
X48252968Y-139005476D01*
X48252978Y-139005484D01*
X48507504Y-139190408D01*
X48507509Y-139190410D01*
X48507516Y-139190416D01*
X48783234Y-139341994D01*
X48783239Y-139341996D01*
X48783241Y-139341997D01*
X48783242Y-139341998D01*
X49075771Y-139457818D01*
X49075774Y-139457819D01*
X49268319Y-139507256D01*
X49380527Y-139536066D01*
X49446010Y-139544338D01*
X49692670Y-139575499D01*
X49692679Y-139575499D01*
X49692682Y-139575500D01*
X49692684Y-139575500D01*
X50007316Y-139575500D01*
X50007318Y-139575500D01*
X50007321Y-139575499D01*
X50007329Y-139575499D01*
X50193593Y-139551968D01*
X50319473Y-139536066D01*
X50624225Y-139457819D01*
X50624228Y-139457818D01*
X50916757Y-139341998D01*
X50916758Y-139341997D01*
X50916756Y-139341997D01*
X50916766Y-139341994D01*
X51192484Y-139190416D01*
X51447030Y-139005478D01*
X51676390Y-138790094D01*
X51876947Y-138547663D01*
X52045537Y-138282007D01*
X52179503Y-137997315D01*
X52276731Y-137698079D01*
X52335688Y-137389015D01*
X52335689Y-137389004D01*
X52355444Y-137075005D01*
X52355444Y-137074994D01*
X52353632Y-137046185D01*
X139830747Y-137046185D01*
X139830747Y-137046196D01*
X139850501Y-137360195D01*
X139850502Y-137360202D01*
X139856563Y-137391974D01*
X139901814Y-137629190D01*
X139909461Y-137669274D01*
X140006688Y-137968507D01*
X140006690Y-137968512D01*
X140140652Y-138253194D01*
X140140655Y-138253200D01*
X140309242Y-138518852D01*
X140309245Y-138518856D01*
X140509797Y-138761281D01*
X140509799Y-138761283D01*
X140509801Y-138761285D01*
X140540480Y-138790094D01*
X140739159Y-138976667D01*
X140739169Y-138976675D01*
X140993695Y-139161599D01*
X140993700Y-139161601D01*
X140993707Y-139161607D01*
X141269425Y-139313185D01*
X141269430Y-139313187D01*
X141269432Y-139313188D01*
X141269433Y-139313189D01*
X141561962Y-139429009D01*
X141561965Y-139429010D01*
X141866714Y-139507256D01*
X141866718Y-139507257D01*
X141932201Y-139515529D01*
X142178861Y-139546690D01*
X142178870Y-139546690D01*
X142178873Y-139546691D01*
X142178875Y-139546691D01*
X142493507Y-139546691D01*
X142493509Y-139546691D01*
X142493512Y-139546690D01*
X142493520Y-139546690D01*
X142679784Y-139523159D01*
X142805664Y-139507257D01*
X143110416Y-139429010D01*
X143110419Y-139429009D01*
X143402948Y-139313189D01*
X143402949Y-139313188D01*
X143402947Y-139313188D01*
X143402957Y-139313185D01*
X143678675Y-139161607D01*
X143933221Y-138976669D01*
X144162581Y-138761285D01*
X144363138Y-138518854D01*
X144531728Y-138253198D01*
X144665694Y-137968506D01*
X144762922Y-137669270D01*
X144821879Y-137360206D01*
X144821880Y-137360195D01*
X144841635Y-137046196D01*
X144841635Y-137046185D01*
X144821880Y-136732186D01*
X144821879Y-136732179D01*
X144821879Y-136732176D01*
X144762922Y-136423112D01*
X144665694Y-136123876D01*
X144531728Y-135839184D01*
X144496605Y-135783839D01*
X144363139Y-135573529D01*
X144363136Y-135573525D01*
X144162584Y-135331100D01*
X144162582Y-135331098D01*
X143933222Y-135115714D01*
X143933212Y-135115706D01*
X143678686Y-134930782D01*
X143678679Y-134930777D01*
X143678675Y-134930775D01*
X143402957Y-134779197D01*
X143402954Y-134779195D01*
X143402949Y-134779193D01*
X143402948Y-134779192D01*
X143110419Y-134663372D01*
X143110416Y-134663371D01*
X142805667Y-134585125D01*
X142805654Y-134585123D01*
X142493520Y-134545691D01*
X142493509Y-134545691D01*
X142178873Y-134545691D01*
X142178861Y-134545691D01*
X141866727Y-134585123D01*
X141866714Y-134585125D01*
X141561965Y-134663371D01*
X141561962Y-134663372D01*
X141269433Y-134779192D01*
X141269432Y-134779193D01*
X140993707Y-134930775D01*
X140993695Y-134930782D01*
X140739169Y-135115706D01*
X140739159Y-135115714D01*
X140509799Y-135331098D01*
X140509797Y-135331100D01*
X140309245Y-135573525D01*
X140309242Y-135573529D01*
X140140655Y-135839181D01*
X140140652Y-135839187D01*
X140006690Y-136123869D01*
X140006688Y-136123874D01*
X139909461Y-136423107D01*
X139850502Y-136732179D01*
X139850501Y-136732186D01*
X139830747Y-137046185D01*
X52353632Y-137046185D01*
X52335689Y-136760995D01*
X52335688Y-136760988D01*
X52335688Y-136760985D01*
X52276731Y-136451921D01*
X52179503Y-136152685D01*
X52045537Y-135867993D01*
X51876947Y-135602337D01*
X51853115Y-135573529D01*
X51676393Y-135359909D01*
X51676391Y-135359907D01*
X51447031Y-135144523D01*
X51447021Y-135144515D01*
X51192495Y-134959591D01*
X51192488Y-134959586D01*
X51192484Y-134959584D01*
X50916766Y-134808006D01*
X50916763Y-134808004D01*
X50916758Y-134808002D01*
X50916757Y-134808001D01*
X50624228Y-134692181D01*
X50624225Y-134692180D01*
X50319476Y-134613934D01*
X50319463Y-134613932D01*
X50007329Y-134574500D01*
X50007318Y-134574500D01*
X49692682Y-134574500D01*
X49692670Y-134574500D01*
X49380536Y-134613932D01*
X49380523Y-134613934D01*
X49075774Y-134692180D01*
X49075771Y-134692181D01*
X48783242Y-134808001D01*
X48783241Y-134808002D01*
X48507516Y-134959584D01*
X48507504Y-134959591D01*
X48252978Y-135144515D01*
X48252968Y-135144523D01*
X48023608Y-135359907D01*
X48023606Y-135359909D01*
X47823054Y-135602334D01*
X47823051Y-135602338D01*
X47654464Y-135867990D01*
X47654461Y-135867996D01*
X47520499Y-136152678D01*
X47520497Y-136152683D01*
X47423270Y-136451916D01*
X47364311Y-136760988D01*
X47364310Y-136760995D01*
X47344556Y-137074994D01*
X46751285Y-137074994D01*
X46750671Y-137063281D01*
X46750502Y-137056735D01*
X46791315Y-83503275D01*
X87028750Y-83503275D01*
X87028750Y-83676650D01*
X87055870Y-83847876D01*
X87109440Y-84012751D01*
X87109441Y-84012754D01*
X87188148Y-84167223D01*
X87290049Y-84307477D01*
X87412636Y-84430064D01*
X87552890Y-84531965D01*
X87628652Y-84570567D01*
X87707358Y-84610671D01*
X87707361Y-84610672D01*
X87789798Y-84637457D01*
X87872238Y-84664243D01*
X87951541Y-84676803D01*
X88043463Y-84691363D01*
X88043468Y-84691363D01*
X88216837Y-84691363D01*
X88299845Y-84678215D01*
X88388062Y-84664243D01*
X88552941Y-84610671D01*
X88707410Y-84531965D01*
X88847664Y-84430064D01*
X88970251Y-84307477D01*
X89072152Y-84167223D01*
X89150858Y-84012754D01*
X89204430Y-83847875D01*
X89218402Y-83759658D01*
X89231550Y-83676650D01*
X89231550Y-83503275D01*
X122228756Y-83503275D01*
X122228756Y-83676650D01*
X122255876Y-83847876D01*
X122309446Y-84012751D01*
X122309447Y-84012754D01*
X122388154Y-84167223D01*
X122490055Y-84307477D01*
X122612642Y-84430064D01*
X122752896Y-84531965D01*
X122828658Y-84570567D01*
X122907364Y-84610671D01*
X122907367Y-84610672D01*
X122989804Y-84637457D01*
X123072244Y-84664243D01*
X123151547Y-84676803D01*
X123243469Y-84691363D01*
X123243474Y-84691363D01*
X123416843Y-84691363D01*
X123499851Y-84678215D01*
X123588068Y-84664243D01*
X123752947Y-84610671D01*
X123907416Y-84531965D01*
X124047670Y-84430064D01*
X124170257Y-84307477D01*
X124272158Y-84167223D01*
X124350864Y-84012754D01*
X124404436Y-83847875D01*
X124418408Y-83759658D01*
X124431556Y-83676650D01*
X124431556Y-83503275D01*
X124415778Y-83403665D01*
X124404436Y-83332051D01*
X124350864Y-83167172D01*
X124350864Y-83167171D01*
X124272157Y-83012702D01*
X124170257Y-82872449D01*
X124047670Y-82749862D01*
X123907416Y-82647961D01*
X123752947Y-82569254D01*
X123752944Y-82569253D01*
X123588069Y-82515683D01*
X123416843Y-82488563D01*
X123416838Y-82488563D01*
X123243474Y-82488563D01*
X123243469Y-82488563D01*
X123072242Y-82515683D01*
X122907367Y-82569253D01*
X122907364Y-82569254D01*
X122752895Y-82647961D01*
X122672875Y-82706099D01*
X122612642Y-82749862D01*
X122612640Y-82749864D01*
X122612639Y-82749864D01*
X122490057Y-82872446D01*
X122490057Y-82872447D01*
X122490055Y-82872449D01*
X122446292Y-82932682D01*
X122388154Y-83012702D01*
X122309447Y-83167171D01*
X122309446Y-83167174D01*
X122255876Y-83332049D01*
X122228756Y-83503275D01*
X89231550Y-83503275D01*
X89215772Y-83403665D01*
X89204430Y-83332051D01*
X89150858Y-83167172D01*
X89150858Y-83167171D01*
X89072151Y-83012702D01*
X88970251Y-82872449D01*
X88847664Y-82749862D01*
X88707410Y-82647961D01*
X88552941Y-82569254D01*
X88552938Y-82569253D01*
X88388063Y-82515683D01*
X88216837Y-82488563D01*
X88216832Y-82488563D01*
X88043468Y-82488563D01*
X88043463Y-82488563D01*
X87872236Y-82515683D01*
X87707361Y-82569253D01*
X87707358Y-82569254D01*
X87552889Y-82647961D01*
X87472869Y-82706099D01*
X87412636Y-82749862D01*
X87412634Y-82749864D01*
X87412633Y-82749864D01*
X87290051Y-82872446D01*
X87290051Y-82872447D01*
X87290049Y-82872449D01*
X87246286Y-82932682D01*
X87188148Y-83012702D01*
X87109441Y-83167171D01*
X87109440Y-83167174D01*
X87055870Y-83332049D01*
X87028750Y-83503275D01*
X46791315Y-83503275D01*
X46793989Y-79994998D01*
X70309666Y-79994998D01*
X70309666Y-79995001D01*
X70328964Y-80215585D01*
X70328965Y-80215592D01*
X70386275Y-80429475D01*
X70386279Y-80429486D01*
X70473435Y-80616393D01*
X70479858Y-80630167D01*
X70606868Y-80811555D01*
X70763445Y-80968132D01*
X70944833Y-81095142D01*
X71040402Y-81139706D01*
X71145513Y-81188720D01*
X71145515Y-81188720D01*
X71145520Y-81188723D01*
X71359409Y-81246035D01*
X71516974Y-81259820D01*
X71579998Y-81265334D01*
X71580000Y-81265334D01*
X71580002Y-81265334D01*
X71635147Y-81260509D01*
X71800591Y-81246035D01*
X72014480Y-81188723D01*
X72215167Y-81095142D01*
X72396555Y-80968132D01*
X72553132Y-80811555D01*
X72680142Y-80630167D01*
X72773723Y-80429480D01*
X72831035Y-80215591D01*
X72846397Y-80039999D01*
X78790168Y-80039999D01*
X78790168Y-80040000D01*
X78809459Y-80260499D01*
X78809461Y-80260509D01*
X78866745Y-80474300D01*
X78866749Y-80474309D01*
X78960295Y-80674919D01*
X79006103Y-80740341D01*
X79006105Y-80740342D01*
X79568871Y-80177575D01*
X79584755Y-80236853D01*
X79651898Y-80353147D01*
X79746853Y-80448102D01*
X79863147Y-80515245D01*
X79922424Y-80531128D01*
X79359656Y-81093894D01*
X79425083Y-81139706D01*
X79425085Y-81139707D01*
X79625690Y-81233250D01*
X79625699Y-81233254D01*
X79839490Y-81290538D01*
X79839500Y-81290540D01*
X80059999Y-81309832D01*
X80060001Y-81309832D01*
X80280499Y-81290540D01*
X80280509Y-81290538D01*
X80494300Y-81233254D01*
X80494309Y-81233250D01*
X80694915Y-81139706D01*
X80760342Y-81093894D01*
X80197575Y-80531127D01*
X80256853Y-80515245D01*
X80373147Y-80448102D01*
X80468102Y-80353147D01*
X80535245Y-80236853D01*
X80551128Y-80177575D01*
X81113894Y-80740342D01*
X81159706Y-80674915D01*
X81253250Y-80474309D01*
X81253254Y-80474300D01*
X81310538Y-80260509D01*
X81310540Y-80260499D01*
X81329832Y-80040000D01*
X81329832Y-80039999D01*
X81310540Y-79819500D01*
X81310538Y-79819490D01*
X81253254Y-79605699D01*
X81253250Y-79605690D01*
X81159707Y-79405085D01*
X81159706Y-79405083D01*
X81113894Y-79339657D01*
X81113894Y-79339656D01*
X80551127Y-79902423D01*
X80535245Y-79843147D01*
X80468102Y-79726853D01*
X80373147Y-79631898D01*
X80256853Y-79564755D01*
X80197575Y-79548872D01*
X80760342Y-78986105D01*
X80760341Y-78986103D01*
X80694919Y-78940295D01*
X80494309Y-78846749D01*
X80494300Y-78846745D01*
X80280509Y-78789461D01*
X80280499Y-78789459D01*
X80060001Y-78770168D01*
X80059999Y-78770168D01*
X79839500Y-78789459D01*
X79839490Y-78789461D01*
X79625699Y-78846745D01*
X79625690Y-78846749D01*
X79425084Y-78940293D01*
X79359657Y-78986104D01*
X79922424Y-79548871D01*
X79863147Y-79564755D01*
X79746853Y-79631898D01*
X79651898Y-79726853D01*
X79584755Y-79843147D01*
X79568871Y-79902424D01*
X79006104Y-79339657D01*
X78960293Y-79405084D01*
X78866749Y-79605690D01*
X78866745Y-79605699D01*
X78809461Y-79819490D01*
X78809459Y-79819500D01*
X78790168Y-80039999D01*
X72846397Y-80039999D01*
X72850334Y-79995000D01*
X72831035Y-79774409D01*
X72773723Y-79560520D01*
X72771476Y-79555702D01*
X72701243Y-79405085D01*
X72680142Y-79359833D01*
X72553132Y-79178445D01*
X72396555Y-79021868D01*
X72215167Y-78894858D01*
X72215163Y-78894856D01*
X72129691Y-78855000D01*
X75104815Y-78855000D01*
X75123503Y-79032805D01*
X75123504Y-79032807D01*
X75178747Y-79202829D01*
X75178750Y-79202835D01*
X75268141Y-79357665D01*
X75305459Y-79399111D01*
X75387764Y-79490521D01*
X75387767Y-79490523D01*
X75387770Y-79490526D01*
X75532407Y-79595612D01*
X75695733Y-79668329D01*
X75870609Y-79705500D01*
X75870610Y-79705500D01*
X76049389Y-79705500D01*
X76049391Y-79705500D01*
X76224267Y-79668329D01*
X76387593Y-79595612D01*
X76389757Y-79594039D01*
X76410208Y-79579182D01*
X76476015Y-79555702D01*
X76483093Y-79555500D01*
X77498996Y-79555500D01*
X77590040Y-79537389D01*
X77634328Y-79528580D01*
X77726211Y-79490521D01*
X77761807Y-79475777D01*
X77761808Y-79475776D01*
X77761811Y-79475775D01*
X77876543Y-79399114D01*
X79685628Y-77590029D01*
X82624628Y-77590029D01*
X82624628Y-77590040D01*
X82643115Y-77813144D01*
X82698074Y-78030175D01*
X82788002Y-78235190D01*
X82788004Y-78235194D01*
X82864443Y-78352194D01*
X83418075Y-77798562D01*
X83423935Y-77820430D01*
X83502519Y-77956540D01*
X83613653Y-78067674D01*
X83749763Y-78146258D01*
X83771628Y-78152116D01*
X83216346Y-78707398D01*
X83216347Y-78707399D01*
X83238750Y-78724837D01*
X83238757Y-78724841D01*
X83435641Y-78831389D01*
X83435655Y-78831395D01*
X83647391Y-78904085D01*
X83868220Y-78940935D01*
X84092096Y-78940935D01*
X84312924Y-78904085D01*
X84524660Y-78831395D01*
X84524669Y-78831392D01*
X84721564Y-78724837D01*
X84721567Y-78724835D01*
X84743968Y-78707399D01*
X84743968Y-78707398D01*
X84188687Y-78152116D01*
X84210553Y-78146258D01*
X84346663Y-78067674D01*
X84457797Y-77956540D01*
X84536381Y-77820430D01*
X84542239Y-77798563D01*
X85095872Y-78352195D01*
X85172311Y-78235195D01*
X85262241Y-78030175D01*
X85317200Y-77813144D01*
X85335688Y-77590040D01*
X85335688Y-77590029D01*
X85317200Y-77366925D01*
X85262241Y-77149894D01*
X85172311Y-76944874D01*
X85095871Y-76827874D01*
X84542239Y-77381505D01*
X84536381Y-77359640D01*
X84457797Y-77223530D01*
X84346663Y-77112396D01*
X84210553Y-77033812D01*
X84188686Y-77027953D01*
X84743968Y-76472671D01*
X84743967Y-76472669D01*
X84721565Y-76455233D01*
X84721559Y-76455228D01*
X84524674Y-76348680D01*
X84524660Y-76348674D01*
X84312924Y-76275984D01*
X84092096Y-76239135D01*
X83868220Y-76239135D01*
X83647391Y-76275984D01*
X83435655Y-76348674D01*
X83435641Y-76348680D01*
X83238757Y-76455228D01*
X83238755Y-76455229D01*
X83216347Y-76472670D01*
X83771629Y-77027952D01*
X83749763Y-77033812D01*
X83613653Y-77112396D01*
X83502519Y-77223530D01*
X83423935Y-77359640D01*
X83418075Y-77381506D01*
X82864443Y-76827874D01*
X82788003Y-76944877D01*
X82788002Y-76944879D01*
X82698074Y-77149894D01*
X82643115Y-77366925D01*
X82624628Y-77590029D01*
X79685628Y-77590029D01*
X82272309Y-75003348D01*
X88228748Y-75003348D01*
X88228748Y-75176723D01*
X88255868Y-75347949D01*
X88309438Y-75512824D01*
X88309439Y-75512827D01*
X88359297Y-75610677D01*
X88388146Y-75667296D01*
X88490047Y-75807550D01*
X88612634Y-75930137D01*
X88752888Y-76032038D01*
X88811433Y-76061868D01*
X88907356Y-76110744D01*
X88907359Y-76110745D01*
X88967117Y-76130161D01*
X89072236Y-76164316D01*
X89151539Y-76176876D01*
X89243461Y-76191436D01*
X89243466Y-76191436D01*
X89416835Y-76191436D01*
X89499843Y-76178288D01*
X89588060Y-76164316D01*
X89752939Y-76110744D01*
X89907408Y-76032038D01*
X90047662Y-75930137D01*
X90170249Y-75807550D01*
X90272150Y-75667296D01*
X90350856Y-75512827D01*
X90404428Y-75347948D01*
X90418400Y-75259731D01*
X90431548Y-75176723D01*
X90431548Y-75003348D01*
X90414631Y-74896543D01*
X90404428Y-74832124D01*
X90350856Y-74667245D01*
X90350856Y-74667244D01*
X90272149Y-74512775D01*
X90170249Y-74372522D01*
X90047662Y-74249935D01*
X89907408Y-74148034D01*
X89752939Y-74069327D01*
X89752936Y-74069326D01*
X89588061Y-74015756D01*
X89416835Y-73988636D01*
X89416830Y-73988636D01*
X89243466Y-73988636D01*
X89243461Y-73988636D01*
X89072234Y-74015756D01*
X88907359Y-74069326D01*
X88907356Y-74069327D01*
X88752887Y-74148034D01*
X88737106Y-74159500D01*
X88612634Y-74249935D01*
X88612632Y-74249937D01*
X88612631Y-74249937D01*
X88490049Y-74372519D01*
X88490049Y-74372520D01*
X88490047Y-74372522D01*
X88483883Y-74381006D01*
X88388146Y-74512775D01*
X88309439Y-74667244D01*
X88309438Y-74667247D01*
X88255868Y-74832122D01*
X88228748Y-75003348D01*
X82272309Y-75003348D01*
X90294471Y-66981184D01*
X90355792Y-66947701D01*
X90425484Y-66952685D01*
X90481417Y-66994557D01*
X90505834Y-67060021D01*
X90506150Y-67068867D01*
X90506150Y-67410532D01*
X90506151Y-67410539D01*
X90512558Y-67470146D01*
X90562852Y-67604991D01*
X90562856Y-67604998D01*
X90649102Y-67720207D01*
X90649105Y-67720210D01*
X90764314Y-67806456D01*
X90764321Y-67806460D01*
X90899167Y-67856754D01*
X90899166Y-67856754D01*
X90906094Y-67857498D01*
X90958777Y-67863163D01*
X92451522Y-67863162D01*
X92511133Y-67856754D01*
X92645981Y-67806459D01*
X92761196Y-67720209D01*
X92842073Y-67612172D01*
X92847329Y-67605151D01*
X92903263Y-67563281D01*
X92946595Y-67555463D01*
X93691156Y-67555463D01*
X93691157Y-67555463D01*
X94349061Y-67555463D01*
X94416100Y-67575148D01*
X94421948Y-67579145D01*
X94467407Y-67612174D01*
X94630733Y-67684891D01*
X94805609Y-67722062D01*
X94805610Y-67722062D01*
X94984389Y-67722062D01*
X94984391Y-67722062D01*
X95159267Y-67684891D01*
X95322593Y-67612174D01*
X95467230Y-67507088D01*
X95467574Y-67506707D01*
X95502983Y-67467380D01*
X95586859Y-67374227D01*
X95676250Y-67219397D01*
X95731497Y-67049365D01*
X95737053Y-66996498D01*
X95763638Y-66931886D01*
X95820936Y-66891902D01*
X95860374Y-66885463D01*
X96715635Y-66885463D01*
X96782674Y-66905148D01*
X96828429Y-66957952D01*
X96835478Y-66983653D01*
X96836574Y-66983395D01*
X96838357Y-66990942D01*
X96888652Y-67125791D01*
X96888656Y-67125798D01*
X96974902Y-67241007D01*
X96974905Y-67241010D01*
X97090114Y-67327256D01*
X97090121Y-67327260D01*
X97224967Y-67377554D01*
X97224966Y-67377554D01*
X97231894Y-67378298D01*
X97284577Y-67383963D01*
X98193122Y-67383962D01*
X98252733Y-67377554D01*
X98387581Y-67327259D01*
X98502796Y-67241009D01*
X98515884Y-67223524D01*
X98571817Y-67181655D01*
X98641509Y-67176671D01*
X98702832Y-67210156D01*
X98714411Y-67223519D01*
X98727504Y-67241009D01*
X98727505Y-67241009D01*
X98727506Y-67241011D01*
X98842714Y-67327256D01*
X98842721Y-67327260D01*
X98977567Y-67377554D01*
X98977566Y-67377554D01*
X98984494Y-67378298D01*
X99037177Y-67383963D01*
X99945722Y-67383962D01*
X100005333Y-67377554D01*
X100140181Y-67327259D01*
X100255396Y-67241009D01*
X100341646Y-67125794D01*
X100391941Y-66990946D01*
X100391941Y-66990940D01*
X100393122Y-66985948D01*
X100427696Y-66925232D01*
X100489606Y-66892846D01*
X100513799Y-66890463D01*
X103860568Y-66890463D01*
X103927607Y-66910148D01*
X103959833Y-66940150D01*
X103999104Y-66992609D01*
X104004302Y-66996500D01*
X104016588Y-67005698D01*
X104058458Y-67061632D01*
X104063441Y-67131324D01*
X104029954Y-67192646D01*
X104016588Y-67204228D01*
X103999104Y-67217316D01*
X103999102Y-67217318D01*
X103912856Y-67332527D01*
X103912852Y-67332534D01*
X103862558Y-67467380D01*
X103856151Y-67526979D01*
X103856150Y-67526998D01*
X103856150Y-68435533D01*
X103856151Y-68435539D01*
X103862558Y-68495146D01*
X103912852Y-68629991D01*
X103912856Y-68629998D01*
X103999102Y-68745207D01*
X103999105Y-68745210D01*
X104114314Y-68831456D01*
X104114321Y-68831460D01*
X104249167Y-68881754D01*
X104249166Y-68881754D01*
X104256094Y-68882498D01*
X104308777Y-68888163D01*
X105801522Y-68888162D01*
X105861133Y-68881754D01*
X105995981Y-68831459D01*
X106111196Y-68745209D01*
X106121493Y-68731453D01*
X106177426Y-68689582D01*
X106220761Y-68681763D01*
X107397846Y-68681763D01*
X107488890Y-68663652D01*
X107533178Y-68654843D01*
X107596919Y-68628440D01*
X107660657Y-68602040D01*
X107660658Y-68602039D01*
X107660661Y-68602038D01*
X107775393Y-68525377D01*
X108943988Y-67356782D01*
X109005311Y-67323297D01*
X109031669Y-67320463D01*
X110374361Y-67320463D01*
X110388174Y-67322073D01*
X110388255Y-67321325D01*
X110395967Y-67322154D01*
X110455577Y-67328563D01*
X111364122Y-67328562D01*
X111423733Y-67322154D01*
X111558581Y-67271859D01*
X111673796Y-67185609D01*
X111686885Y-67168125D01*
X111742813Y-67126256D01*
X111812504Y-67121270D01*
X111873828Y-67154754D01*
X111885415Y-67168125D01*
X111902708Y-67191225D01*
X111927126Y-67256689D01*
X111912275Y-67324962D01*
X111891123Y-67353218D01*
X106571162Y-72673181D01*
X106509839Y-72706666D01*
X106483481Y-72709500D01*
X91478093Y-72709500D01*
X91411054Y-72689815D01*
X91405208Y-72685818D01*
X91382597Y-72669390D01*
X91382593Y-72669388D01*
X91219267Y-72596671D01*
X91219265Y-72596670D01*
X91091594Y-72569533D01*
X91044391Y-72559500D01*
X90865609Y-72559500D01*
X90834954Y-72566015D01*
X90690733Y-72596670D01*
X90690728Y-72596672D01*
X90527408Y-72669387D01*
X90382768Y-72774475D01*
X90263140Y-72907336D01*
X90173750Y-73062164D01*
X90173747Y-73062170D01*
X90118504Y-73232192D01*
X90118503Y-73232194D01*
X90099815Y-73410000D01*
X90118503Y-73587805D01*
X90118504Y-73587807D01*
X90173747Y-73757829D01*
X90173750Y-73757835D01*
X90263141Y-73912665D01*
X90299428Y-73952966D01*
X90382764Y-74045521D01*
X90382767Y-74045523D01*
X90382770Y-74045526D01*
X90527407Y-74150612D01*
X90690733Y-74223329D01*
X90865609Y-74260500D01*
X90865610Y-74260500D01*
X91044389Y-74260500D01*
X91044391Y-74260500D01*
X91219267Y-74223329D01*
X91382593Y-74150612D01*
X91397454Y-74139815D01*
X91405208Y-74134182D01*
X91471015Y-74110702D01*
X91478093Y-74110500D01*
X106893996Y-74110500D01*
X107012079Y-74087011D01*
X107029328Y-74083580D01*
X107145404Y-74035500D01*
X107156807Y-74030777D01*
X107156808Y-74030776D01*
X107156811Y-74030775D01*
X107271543Y-73954114D01*
X109732969Y-71492686D01*
X109794292Y-71459202D01*
X109863984Y-71464186D01*
X109919917Y-71506058D01*
X109944334Y-71571522D01*
X109944650Y-71580368D01*
X109944650Y-79828331D01*
X109924965Y-79895370D01*
X109908331Y-79916012D01*
X109471125Y-80353218D01*
X109409802Y-80386703D01*
X109383444Y-80389537D01*
X85203860Y-80389537D01*
X85136821Y-80369852D01*
X85100052Y-80333360D01*
X85090049Y-80318050D01*
X85050258Y-80257145D01*
X85050254Y-80257141D01*
X85050251Y-80257136D01*
X84898576Y-80092375D01*
X84898566Y-80092366D01*
X84721840Y-79954814D01*
X84721831Y-79954808D01*
X84524876Y-79848222D01*
X84524873Y-79848221D01*
X84524870Y-79848219D01*
X84524864Y-79848217D01*
X84524862Y-79848216D01*
X84313046Y-79775499D01*
X84092138Y-79738637D01*
X83868178Y-79738637D01*
X83647269Y-79775499D01*
X83435453Y-79848216D01*
X83435439Y-79848222D01*
X83238484Y-79954808D01*
X83238475Y-79954814D01*
X83061749Y-80092366D01*
X83061739Y-80092375D01*
X82910064Y-80257136D01*
X82910056Y-80257147D01*
X82787563Y-80444635D01*
X82697599Y-80649735D01*
X82642621Y-80866837D01*
X82642619Y-80866849D01*
X82624126Y-81090031D01*
X82624126Y-81090042D01*
X82642619Y-81313224D01*
X82642621Y-81313236D01*
X82697599Y-81530338D01*
X82787563Y-81735438D01*
X82910056Y-81922926D01*
X82910064Y-81922937D01*
X83061739Y-82087698D01*
X83061743Y-82087702D01*
X83238479Y-82225262D01*
X83238481Y-82225263D01*
X83238484Y-82225265D01*
X83352989Y-82287231D01*
X83435446Y-82331855D01*
X83647272Y-82404575D01*
X83868178Y-82441437D01*
X84092138Y-82441437D01*
X84313044Y-82404575D01*
X84524870Y-82331855D01*
X84721837Y-82225262D01*
X84898573Y-82087702D01*
X85050258Y-81922929D01*
X85100052Y-81846714D01*
X85153199Y-81801358D01*
X85203860Y-81790537D01*
X109793959Y-81790537D01*
X109885003Y-81772426D01*
X109929291Y-81763617D01*
X109997324Y-81735437D01*
X110056770Y-81710814D01*
X110056771Y-81710813D01*
X110056774Y-81710812D01*
X110171506Y-81634151D01*
X111189264Y-80616393D01*
X111265925Y-80501661D01*
X111318730Y-80374178D01*
X111341341Y-80260509D01*
X111345650Y-80238846D01*
X111345650Y-73489996D01*
X116304435Y-73489996D01*
X116304435Y-73490003D01*
X116324630Y-73669246D01*
X116324632Y-73669256D01*
X116337541Y-73706146D01*
X116344500Y-73747101D01*
X116344500Y-74381006D01*
X116344500Y-74518994D01*
X116344500Y-74518996D01*
X116344499Y-74518996D01*
X116371418Y-74654322D01*
X116371421Y-74654332D01*
X116424222Y-74781807D01*
X116500887Y-74896545D01*
X117008454Y-75404112D01*
X117123192Y-75480777D01*
X117250667Y-75533578D01*
X117250672Y-75533580D01*
X117250676Y-75533580D01*
X117250677Y-75533581D01*
X117386003Y-75560500D01*
X117386006Y-75560500D01*
X117386007Y-75560500D01*
X118868481Y-75560500D01*
X118935520Y-75580185D01*
X118956162Y-75596819D01*
X119428181Y-76068838D01*
X119461666Y-76130161D01*
X119464500Y-76156519D01*
X119464500Y-76939507D01*
X119445494Y-77005478D01*
X119439209Y-77015479D01*
X119379633Y-77185737D01*
X119379630Y-77185750D01*
X119359435Y-77364996D01*
X119359435Y-77365003D01*
X119379630Y-77544249D01*
X119379631Y-77544254D01*
X119439211Y-77714523D01*
X119501179Y-77813144D01*
X119535184Y-77867262D01*
X119662738Y-77994816D01*
X119815478Y-78090789D01*
X119973999Y-78146258D01*
X119985745Y-78150368D01*
X119985750Y-78150369D01*
X120164996Y-78170565D01*
X120165000Y-78170565D01*
X120165004Y-78170565D01*
X120344249Y-78150369D01*
X120344252Y-78150368D01*
X120344255Y-78150368D01*
X120514522Y-78090789D01*
X120667262Y-77994816D01*
X120794816Y-77867262D01*
X120890789Y-77714522D01*
X120934351Y-77590029D01*
X126124115Y-77590029D01*
X126124115Y-77590040D01*
X126142608Y-77813222D01*
X126142610Y-77813234D01*
X126197588Y-78030336D01*
X126287552Y-78235436D01*
X126410045Y-78422924D01*
X126410053Y-78422935D01*
X126561728Y-78587696D01*
X126561738Y-78587705D01*
X126737930Y-78724841D01*
X126738468Y-78725260D01*
X126738470Y-78725261D01*
X126738473Y-78725263D01*
X126773030Y-78743964D01*
X126935435Y-78831853D01*
X127118956Y-78894856D01*
X127145839Y-78904085D01*
X127147261Y-78904573D01*
X127368167Y-78941435D01*
X127592127Y-78941435D01*
X127813033Y-78904573D01*
X128024859Y-78831853D01*
X128221826Y-78725260D01*
X128398562Y-78587700D01*
X128550247Y-78422927D01*
X128672742Y-78235435D01*
X128762705Y-78030338D01*
X128817684Y-77813231D01*
X128817691Y-77813144D01*
X128836179Y-77590040D01*
X128836179Y-77590029D01*
X128817685Y-77366847D01*
X128817683Y-77366835D01*
X128762705Y-77149733D01*
X128672741Y-76944633D01*
X128587661Y-76814409D01*
X128550247Y-76757143D01*
X128550244Y-76757140D01*
X128550240Y-76757134D01*
X128398565Y-76592373D01*
X128398555Y-76592364D01*
X128221829Y-76454812D01*
X128221820Y-76454806D01*
X128024865Y-76348220D01*
X128024862Y-76348219D01*
X128024859Y-76348217D01*
X128024853Y-76348215D01*
X128024851Y-76348214D01*
X127813035Y-76275497D01*
X127592127Y-76238635D01*
X127368167Y-76238635D01*
X127147258Y-76275497D01*
X126935442Y-76348214D01*
X126935428Y-76348220D01*
X126738473Y-76454806D01*
X126738464Y-76454812D01*
X126561738Y-76592364D01*
X126561728Y-76592373D01*
X126410053Y-76757134D01*
X126410045Y-76757145D01*
X126287552Y-76944633D01*
X126197588Y-77149733D01*
X126142610Y-77366835D01*
X126142608Y-77366847D01*
X126124115Y-77590029D01*
X120934351Y-77590029D01*
X120950368Y-77544255D01*
X120954064Y-77511452D01*
X120970565Y-77365003D01*
X120970565Y-77364996D01*
X120950369Y-77185750D01*
X120950366Y-77185737D01*
X120890790Y-77015479D01*
X120884506Y-77005478D01*
X120865500Y-76939507D01*
X120865500Y-75746004D01*
X120838581Y-75610677D01*
X120838580Y-75610676D01*
X120838580Y-75610672D01*
X120806647Y-75533578D01*
X120785776Y-75483191D01*
X120732939Y-75404114D01*
X120709112Y-75368454D01*
X120344006Y-75003348D01*
X121028758Y-75003348D01*
X121028758Y-75176723D01*
X121055878Y-75347949D01*
X121109448Y-75512824D01*
X121109449Y-75512827D01*
X121159307Y-75610677D01*
X121188156Y-75667296D01*
X121290057Y-75807550D01*
X121412644Y-75930137D01*
X121552898Y-76032038D01*
X121611443Y-76061868D01*
X121707366Y-76110744D01*
X121707369Y-76110745D01*
X121767127Y-76130161D01*
X121872246Y-76164316D01*
X121951549Y-76176876D01*
X122043471Y-76191436D01*
X122043476Y-76191436D01*
X122216845Y-76191436D01*
X122299853Y-76178288D01*
X122388070Y-76164316D01*
X122552949Y-76110744D01*
X122707418Y-76032038D01*
X122847672Y-75930137D01*
X122970259Y-75807550D01*
X123072160Y-75667296D01*
X123150866Y-75512827D01*
X123204438Y-75347948D01*
X123218410Y-75259731D01*
X123231558Y-75176723D01*
X123231558Y-75003348D01*
X123214641Y-74896543D01*
X123204438Y-74832124D01*
X123150866Y-74667245D01*
X123150866Y-74667244D01*
X123072159Y-74512775D01*
X122970259Y-74372522D01*
X122847672Y-74249935D01*
X122707418Y-74148034D01*
X122552949Y-74069327D01*
X122552946Y-74069326D01*
X122388071Y-74015756D01*
X122216845Y-73988636D01*
X122216840Y-73988636D01*
X122043476Y-73988636D01*
X122043471Y-73988636D01*
X121872244Y-74015756D01*
X121707369Y-74069326D01*
X121707366Y-74069327D01*
X121552897Y-74148034D01*
X121537116Y-74159500D01*
X121412644Y-74249935D01*
X121412642Y-74249937D01*
X121412641Y-74249937D01*
X121290059Y-74372519D01*
X121290059Y-74372520D01*
X121290057Y-74372522D01*
X121283893Y-74381006D01*
X121188156Y-74512775D01*
X121109449Y-74667244D01*
X121109448Y-74667247D01*
X121055878Y-74832122D01*
X121028758Y-75003348D01*
X120344006Y-75003348D01*
X119656545Y-74315887D01*
X119541807Y-74239222D01*
X119414332Y-74186421D01*
X119414322Y-74186418D01*
X119278996Y-74159500D01*
X119278994Y-74159500D01*
X119278993Y-74159500D01*
X117869500Y-74159500D01*
X117802461Y-74139815D01*
X117756706Y-74087011D01*
X117745500Y-74035500D01*
X117745500Y-74018939D01*
X117764507Y-73952966D01*
X117835788Y-73839524D01*
X117835789Y-73839522D01*
X117895368Y-73669255D01*
X117904545Y-73587805D01*
X117915565Y-73490003D01*
X117915565Y-73489996D01*
X117895369Y-73310750D01*
X117895368Y-73310745D01*
X117835788Y-73140476D01*
X117739815Y-72987737D01*
X117612262Y-72860184D01*
X117459523Y-72764211D01*
X117289254Y-72704631D01*
X117289249Y-72704630D01*
X117110004Y-72684435D01*
X117109996Y-72684435D01*
X116930750Y-72704630D01*
X116930745Y-72704631D01*
X116760476Y-72764211D01*
X116607737Y-72860184D01*
X116480184Y-72987737D01*
X116384211Y-73140476D01*
X116324631Y-73310745D01*
X116324630Y-73310750D01*
X116304435Y-73489996D01*
X111345650Y-73489996D01*
X111345650Y-71575493D01*
X111364658Y-71509519D01*
X111370937Y-71499525D01*
X111370936Y-71499525D01*
X111370939Y-71499522D01*
X111430518Y-71329255D01*
X111436003Y-71280573D01*
X111450715Y-71150003D01*
X111450715Y-71149996D01*
X111430519Y-70970750D01*
X111430518Y-70970745D01*
X111370939Y-70800478D01*
X111274966Y-70647738D01*
X111147412Y-70520184D01*
X111147410Y-70520182D01*
X111007664Y-70432373D01*
X110961374Y-70380038D01*
X110950726Y-70310985D01*
X110979101Y-70247137D01*
X110985943Y-70239712D01*
X113260775Y-67964882D01*
X113322098Y-67931397D01*
X113348456Y-67928563D01*
X113390933Y-67928563D01*
X113483935Y-67910063D01*
X113526265Y-67901643D01*
X113600109Y-67871056D01*
X113653744Y-67848840D01*
X113653745Y-67848839D01*
X113653748Y-67848838D01*
X113768480Y-67772177D01*
X113792889Y-67747767D01*
X113854209Y-67714283D01*
X113854353Y-67714251D01*
X113929267Y-67698329D01*
X113929275Y-67698325D01*
X113934206Y-67696724D01*
X114004047Y-67694727D01*
X114045408Y-67714334D01*
X114163557Y-67800175D01*
X114326883Y-67872892D01*
X114501759Y-67910063D01*
X114501760Y-67910063D01*
X114680539Y-67910063D01*
X114680541Y-67910063D01*
X114855417Y-67872892D01*
X115018743Y-67800175D01*
X115094622Y-67745045D01*
X115160428Y-67721565D01*
X115167508Y-67721363D01*
X116915539Y-67721363D01*
X116982578Y-67741048D01*
X117014806Y-67771053D01*
X117025104Y-67784809D01*
X117025107Y-67784811D01*
X117140314Y-67871056D01*
X117140321Y-67871060D01*
X117275167Y-67921354D01*
X117275166Y-67921354D01*
X117282094Y-67922098D01*
X117334777Y-67927763D01*
X118827522Y-67927762D01*
X118887133Y-67921354D01*
X119021981Y-67871059D01*
X119036337Y-67860311D01*
X119101801Y-67835893D01*
X119170074Y-67850743D01*
X119219481Y-67900148D01*
X119234650Y-67959577D01*
X119234650Y-68274915D01*
X119214965Y-68341954D01*
X119198331Y-68362596D01*
X117757783Y-69803144D01*
X117696460Y-69836629D01*
X117670102Y-69839463D01*
X115769243Y-69839463D01*
X115702204Y-69819778D01*
X115696358Y-69815781D01*
X115673747Y-69799353D01*
X115673743Y-69799351D01*
X115510417Y-69726634D01*
X115510415Y-69726633D01*
X115382744Y-69699496D01*
X115335541Y-69689463D01*
X115156759Y-69689463D01*
X115126104Y-69695978D01*
X114981883Y-69726633D01*
X114981878Y-69726635D01*
X114818558Y-69799350D01*
X114673918Y-69904438D01*
X114554290Y-70037299D01*
X114464900Y-70192127D01*
X114464897Y-70192133D01*
X114409654Y-70362155D01*
X114409653Y-70362157D01*
X114390965Y-70539963D01*
X114409653Y-70717768D01*
X114409654Y-70717770D01*
X114464897Y-70887792D01*
X114464900Y-70887798D01*
X114554291Y-71042628D01*
X114591610Y-71084075D01*
X114673914Y-71175484D01*
X114673917Y-71175486D01*
X114673920Y-71175489D01*
X114818557Y-71280575D01*
X114981883Y-71353292D01*
X115156759Y-71390463D01*
X115156760Y-71390463D01*
X115335539Y-71390463D01*
X115335541Y-71390463D01*
X115510417Y-71353292D01*
X115673743Y-71280575D01*
X115675907Y-71279002D01*
X115696358Y-71264145D01*
X115762165Y-71240665D01*
X115769243Y-71240463D01*
X118080617Y-71240463D01*
X118171661Y-71222352D01*
X118215949Y-71213543D01*
X118307832Y-71175484D01*
X118343428Y-71160740D01*
X118343429Y-71160739D01*
X118343432Y-71160738D01*
X118458164Y-71084077D01*
X120479264Y-69062977D01*
X120555925Y-68948245D01*
X120608730Y-68820762D01*
X120623758Y-68745211D01*
X120635650Y-68685430D01*
X120635650Y-68337214D01*
X129264376Y-68337214D01*
X129264376Y-69141917D01*
X129296398Y-69344100D01*
X129359657Y-69538789D01*
X129423567Y-69664219D01*
X129447495Y-69711179D01*
X129452591Y-69721179D01*
X129572904Y-69886779D01*
X129717662Y-70031537D01*
X129868043Y-70140793D01*
X129883266Y-70151853D01*
X129962320Y-70192133D01*
X130065652Y-70244784D01*
X130065654Y-70244784D01*
X130065657Y-70244786D01*
X130170013Y-70278693D01*
X130260341Y-70308043D01*
X130361433Y-70324054D01*
X130462524Y-70340066D01*
X130462525Y-70340066D01*
X130667227Y-70340066D01*
X130667228Y-70340066D01*
X130869410Y-70308043D01*
X131064095Y-70244786D01*
X131246486Y-70151853D01*
X131339466Y-70084298D01*
X131412089Y-70031537D01*
X131412091Y-70031534D01*
X131412095Y-70031532D01*
X131556842Y-69886785D01*
X131556844Y-69886781D01*
X131556847Y-69886779D01*
X131617610Y-69803144D01*
X131677163Y-69721176D01*
X131770096Y-69538785D01*
X131833353Y-69344100D01*
X131865376Y-69141918D01*
X131865376Y-68337214D01*
X131863792Y-68327214D01*
X134744376Y-68327214D01*
X134744376Y-69131917D01*
X134776398Y-69334100D01*
X134839657Y-69528789D01*
X134932591Y-69711179D01*
X135052904Y-69876779D01*
X135197662Y-70021537D01*
X135352625Y-70134122D01*
X135363266Y-70141853D01*
X135461934Y-70192127D01*
X135545652Y-70234784D01*
X135545654Y-70234784D01*
X135545657Y-70234786D01*
X135650013Y-70268693D01*
X135740341Y-70298043D01*
X135803478Y-70308043D01*
X135942524Y-70330066D01*
X135942525Y-70330066D01*
X136147227Y-70330066D01*
X136147228Y-70330066D01*
X136349410Y-70298043D01*
X136544095Y-70234786D01*
X136726486Y-70141853D01*
X136819466Y-70074298D01*
X136892089Y-70021537D01*
X136892091Y-70021534D01*
X136892095Y-70021532D01*
X137036842Y-69876785D01*
X137036844Y-69876781D01*
X137036847Y-69876779D01*
X137093101Y-69799350D01*
X137157163Y-69711176D01*
X137250096Y-69528785D01*
X137313353Y-69334100D01*
X137345376Y-69131918D01*
X137345376Y-68327214D01*
X137313353Y-68125032D01*
X137308343Y-68109614D01*
X137253345Y-67940347D01*
X137250096Y-67930347D01*
X137250094Y-67930344D01*
X137250094Y-67930342D01*
X137186972Y-67806460D01*
X137157163Y-67747956D01*
X137132737Y-67714336D01*
X137036847Y-67582352D01*
X136892089Y-67437594D01*
X136726489Y-67317281D01*
X136726488Y-67317280D01*
X136726486Y-67317279D01*
X136669529Y-67288257D01*
X136544099Y-67224347D01*
X136349410Y-67161088D01*
X136161484Y-67131324D01*
X136147228Y-67129066D01*
X135942524Y-67129066D01*
X135928268Y-67131324D01*
X135740341Y-67161088D01*
X135545652Y-67224347D01*
X135363262Y-67317281D01*
X135197662Y-67437594D01*
X135052904Y-67582352D01*
X134932591Y-67747952D01*
X134839657Y-67930342D01*
X134776398Y-68125031D01*
X134744376Y-68327214D01*
X131863792Y-68327214D01*
X131833353Y-68135032D01*
X131830103Y-68125031D01*
X131770094Y-67940342D01*
X131701877Y-67806460D01*
X131677163Y-67757956D01*
X131651085Y-67722062D01*
X131556847Y-67592352D01*
X131412089Y-67447594D01*
X131246489Y-67327281D01*
X131246488Y-67327280D01*
X131246486Y-67327279D01*
X131189529Y-67298257D01*
X131064099Y-67234347D01*
X130869410Y-67171088D01*
X130691005Y-67142832D01*
X130667228Y-67139066D01*
X130462524Y-67139066D01*
X130438747Y-67142832D01*
X130260341Y-67171088D01*
X130065652Y-67234347D01*
X129883262Y-67327281D01*
X129717662Y-67447594D01*
X129572904Y-67592352D01*
X129452591Y-67757952D01*
X129359657Y-67940342D01*
X129296398Y-68135031D01*
X129264376Y-68337214D01*
X120635650Y-68337214D01*
X120635650Y-66716106D01*
X132579200Y-66716106D01*
X132579200Y-66863025D01*
X132607858Y-67007100D01*
X132607861Y-67007110D01*
X132664078Y-67142832D01*
X132664083Y-67142841D01*
X132745698Y-67264985D01*
X132745701Y-67264989D01*
X132849576Y-67368864D01*
X132849580Y-67368867D01*
X132971724Y-67450482D01*
X132971730Y-67450485D01*
X132971731Y-67450486D01*
X133107458Y-67506706D01*
X133251540Y-67535365D01*
X133251544Y-67535366D01*
X133251545Y-67535366D01*
X133398456Y-67535366D01*
X133398457Y-67535365D01*
X133542542Y-67506706D01*
X133678269Y-67450486D01*
X133800420Y-67368867D01*
X133904301Y-67264986D01*
X133985920Y-67142835D01*
X134042140Y-67007108D01*
X134070800Y-66863021D01*
X134070800Y-66716111D01*
X134042140Y-66572024D01*
X133985920Y-66436297D01*
X133985919Y-66436296D01*
X133985916Y-66436290D01*
X133904301Y-66314146D01*
X133904298Y-66314142D01*
X133800423Y-66210267D01*
X133800419Y-66210264D01*
X133678275Y-66128649D01*
X133678266Y-66128644D01*
X133542544Y-66072427D01*
X133542545Y-66072427D01*
X133542542Y-66072426D01*
X133542538Y-66072425D01*
X133542534Y-66072424D01*
X133398459Y-66043766D01*
X133398455Y-66043766D01*
X133251545Y-66043766D01*
X133251540Y-66043766D01*
X133107465Y-66072424D01*
X133107455Y-66072427D01*
X132971733Y-66128644D01*
X132971724Y-66128649D01*
X132849580Y-66210264D01*
X132849576Y-66210267D01*
X132745701Y-66314142D01*
X132745698Y-66314146D01*
X132664083Y-66436290D01*
X132664078Y-66436299D01*
X132607861Y-66572021D01*
X132607858Y-66572031D01*
X132579200Y-66716106D01*
X120635650Y-66716106D01*
X120635650Y-64695969D01*
X120628405Y-64659550D01*
X120628405Y-64659547D01*
X120614896Y-64591633D01*
X120608730Y-64560635D01*
X120608444Y-64559945D01*
X120555927Y-64433155D01*
X120479262Y-64318417D01*
X120479261Y-64318416D01*
X119672673Y-63511829D01*
X119657252Y-63493039D01*
X119623762Y-63442917D01*
X119246695Y-63065850D01*
X119131957Y-62989185D01*
X119004482Y-62936384D01*
X119004472Y-62936381D01*
X118869146Y-62909463D01*
X118869144Y-62909463D01*
X118869143Y-62909463D01*
X112596519Y-62909463D01*
X112529480Y-62889778D01*
X112508838Y-62873144D01*
X111410694Y-61775000D01*
X113759815Y-61775000D01*
X113778503Y-61952805D01*
X113778504Y-61952807D01*
X113833747Y-62122829D01*
X113833750Y-62122835D01*
X113923141Y-62277665D01*
X113964812Y-62323946D01*
X114042764Y-62410521D01*
X114042767Y-62410523D01*
X114042770Y-62410526D01*
X114187407Y-62515612D01*
X114350733Y-62588329D01*
X114525609Y-62625500D01*
X114525610Y-62625500D01*
X114704389Y-62625500D01*
X114704391Y-62625500D01*
X114879267Y-62588329D01*
X114951385Y-62556219D01*
X115001820Y-62545500D01*
X120296055Y-62545500D01*
X120363094Y-62565185D01*
X120397628Y-62598374D01*
X120441868Y-62661555D01*
X120598445Y-62818132D01*
X120779833Y-62945142D01*
X120874291Y-62989188D01*
X120980513Y-63038720D01*
X120980515Y-63038720D01*
X120980520Y-63038723D01*
X121194409Y-63096035D01*
X121351974Y-63109820D01*
X121414998Y-63115334D01*
X121415000Y-63115334D01*
X121415002Y-63115334D01*
X121470147Y-63110509D01*
X121635591Y-63096035D01*
X121849480Y-63038723D01*
X122050167Y-62945142D01*
X122090004Y-62917248D01*
X130514876Y-62917248D01*
X130514876Y-63069566D01*
X131314876Y-63069566D01*
X131314876Y-63569566D01*
X130514876Y-63569566D01*
X130514876Y-63721883D01*
X130546885Y-63923983D01*
X130610120Y-64118597D01*
X130703016Y-64300915D01*
X130823293Y-64466460D01*
X130823293Y-64466461D01*
X130967980Y-64611148D01*
X131133526Y-64731425D01*
X131315844Y-64824320D01*
X131510454Y-64887554D01*
X131564876Y-64896173D01*
X131564876Y-64002578D01*
X131621883Y-64035491D01*
X131749050Y-64069566D01*
X131880702Y-64069566D01*
X132007869Y-64035491D01*
X132064876Y-64002578D01*
X132064876Y-64896172D01*
X132119297Y-64887554D01*
X132313907Y-64824320D01*
X132496225Y-64731425D01*
X132661770Y-64611148D01*
X132661771Y-64611148D01*
X132806458Y-64466461D01*
X132806458Y-64466460D01*
X132926735Y-64300915D01*
X133019631Y-64118597D01*
X133082866Y-63923983D01*
X133114876Y-63721883D01*
X133114876Y-63569566D01*
X132314876Y-63569566D01*
X132314876Y-63069566D01*
X133114876Y-63069566D01*
X133114876Y-62917248D01*
X133082866Y-62715148D01*
X133019631Y-62520534D01*
X132926735Y-62338216D01*
X132806458Y-62172671D01*
X132806458Y-62172670D01*
X132661771Y-62027983D01*
X132496225Y-61907706D01*
X132313905Y-61814810D01*
X132119289Y-61751575D01*
X132064876Y-61742956D01*
X132064876Y-62636554D01*
X132007869Y-62603641D01*
X131880702Y-62569566D01*
X131749050Y-62569566D01*
X131621883Y-62603641D01*
X131564876Y-62636554D01*
X131564876Y-61742956D01*
X131510462Y-61751575D01*
X131315846Y-61814810D01*
X131133526Y-61907706D01*
X130967981Y-62027983D01*
X130967980Y-62027983D01*
X130823293Y-62172670D01*
X130823293Y-62172671D01*
X130703016Y-62338216D01*
X130610120Y-62520534D01*
X130546885Y-62715148D01*
X130514876Y-62917248D01*
X122090004Y-62917248D01*
X122231555Y-62818132D01*
X122388132Y-62661555D01*
X122515142Y-62480167D01*
X122608723Y-62279480D01*
X122666035Y-62065591D01*
X122685334Y-61845000D01*
X122666035Y-61624409D01*
X122608723Y-61410520D01*
X122604823Y-61402157D01*
X122526309Y-61233781D01*
X122515142Y-61209833D01*
X122388132Y-61028445D01*
X122231555Y-60871868D01*
X122050167Y-60744858D01*
X122050163Y-60744856D01*
X121849486Y-60651279D01*
X121849475Y-60651275D01*
X121635592Y-60593965D01*
X121635585Y-60593964D01*
X121415002Y-60574666D01*
X121414998Y-60574666D01*
X121194414Y-60593964D01*
X121194407Y-60593965D01*
X120980524Y-60651275D01*
X120980513Y-60651279D01*
X120779836Y-60744856D01*
X120779834Y-60744857D01*
X120598444Y-60871868D01*
X120441868Y-61028444D01*
X120424682Y-61052989D01*
X120397628Y-61091625D01*
X120343053Y-61135248D01*
X120296055Y-61144500D01*
X115234438Y-61144500D01*
X115167399Y-61124815D01*
X115161552Y-61120818D01*
X115121370Y-61091624D01*
X115042593Y-61034388D01*
X114879267Y-60961671D01*
X114879265Y-60961670D01*
X114751594Y-60934533D01*
X114704391Y-60924500D01*
X114525609Y-60924500D01*
X114494954Y-60931015D01*
X114350733Y-60961670D01*
X114350728Y-60961672D01*
X114187408Y-61034387D01*
X114042768Y-61139475D01*
X113923140Y-61272336D01*
X113833750Y-61427164D01*
X113833747Y-61427170D01*
X113778504Y-61597192D01*
X113778503Y-61597194D01*
X113759815Y-61775000D01*
X111410694Y-61775000D01*
X109371583Y-59735888D01*
X109371582Y-59735887D01*
X109256844Y-59659222D01*
X109129369Y-59606421D01*
X109129359Y-59606418D01*
X108994033Y-59579500D01*
X108994031Y-59579500D01*
X108994030Y-59579500D01*
X99464107Y-59579500D01*
X99326119Y-59579500D01*
X99326117Y-59579500D01*
X99190790Y-59606418D01*
X99190780Y-59606421D01*
X99063305Y-59659222D01*
X98948567Y-59735887D01*
X98007261Y-60677193D01*
X97945938Y-60710678D01*
X97945362Y-60710802D01*
X97870882Y-60726634D01*
X97870878Y-60726635D01*
X97707558Y-60799350D01*
X97562918Y-60904438D01*
X97443290Y-61037299D01*
X97353900Y-61192127D01*
X97353897Y-61192133D01*
X97340366Y-61233781D01*
X97300929Y-61291456D01*
X97236570Y-61318655D01*
X97222435Y-61319463D01*
X96491472Y-61319463D01*
X96424433Y-61299778D01*
X96378678Y-61246974D01*
X96368252Y-61209346D01*
X96360519Y-61140714D01*
X96360518Y-61140712D01*
X96360518Y-61140708D01*
X96342230Y-61088446D01*
X96338668Y-61018673D01*
X96363084Y-60975357D01*
X96360081Y-60973109D01*
X96365396Y-60966009D01*
X96451646Y-60850794D01*
X96501941Y-60715946D01*
X96508350Y-60656336D01*
X96508349Y-59216106D01*
X132579200Y-59216106D01*
X132579200Y-59363025D01*
X132607858Y-59507100D01*
X132607861Y-59507110D01*
X132664078Y-59642832D01*
X132664083Y-59642841D01*
X132745698Y-59764985D01*
X132745701Y-59764989D01*
X132849576Y-59868864D01*
X132849580Y-59868867D01*
X132971724Y-59950482D01*
X132971730Y-59950485D01*
X132971731Y-59950486D01*
X133107458Y-60006706D01*
X133251540Y-60035365D01*
X133251544Y-60035366D01*
X133251545Y-60035366D01*
X133398456Y-60035366D01*
X133398457Y-60035365D01*
X133542542Y-60006706D01*
X133678269Y-59950486D01*
X133800420Y-59868867D01*
X133904301Y-59764986D01*
X133985920Y-59642835D01*
X134042140Y-59507108D01*
X134070800Y-59363021D01*
X134070800Y-59216111D01*
X134042140Y-59072024D01*
X133985920Y-58936297D01*
X133985919Y-58936296D01*
X133985916Y-58936290D01*
X133904301Y-58814146D01*
X133904298Y-58814142D01*
X133800423Y-58710267D01*
X133800419Y-58710264D01*
X133678275Y-58628649D01*
X133678266Y-58628644D01*
X133542544Y-58572427D01*
X133542545Y-58572427D01*
X133542542Y-58572426D01*
X133542538Y-58572425D01*
X133542534Y-58572424D01*
X133398459Y-58543766D01*
X133398455Y-58543766D01*
X133251545Y-58543766D01*
X133251540Y-58543766D01*
X133107465Y-58572424D01*
X133107455Y-58572427D01*
X132971733Y-58628644D01*
X132971724Y-58628649D01*
X132849580Y-58710264D01*
X132849576Y-58710267D01*
X132745701Y-58814142D01*
X132745698Y-58814146D01*
X132664083Y-58936290D01*
X132664078Y-58936299D01*
X132607861Y-59072021D01*
X132607858Y-59072031D01*
X132579200Y-59216106D01*
X96508349Y-59216106D01*
X96508349Y-59163591D01*
X96501941Y-59103980D01*
X96490022Y-59072024D01*
X96451647Y-58969134D01*
X96451643Y-58969127D01*
X96365397Y-58853918D01*
X96365394Y-58853915D01*
X96250185Y-58767669D01*
X96250178Y-58767665D01*
X96115332Y-58717371D01*
X96115333Y-58717371D01*
X96055733Y-58710964D01*
X96055731Y-58710963D01*
X96055723Y-58710963D01*
X96055714Y-58710963D01*
X95147179Y-58710963D01*
X95147173Y-58710964D01*
X95087566Y-58717371D01*
X94952721Y-58767665D01*
X94952714Y-58767669D01*
X94837505Y-58853915D01*
X94824101Y-58871820D01*
X94768165Y-58913689D01*
X94698474Y-58918670D01*
X94637152Y-58885182D01*
X94625570Y-58871815D01*
X94612438Y-58854273D01*
X94612437Y-58854272D01*
X94497343Y-58768112D01*
X94497336Y-58768108D01*
X94362629Y-58717866D01*
X94362622Y-58717864D01*
X94303094Y-58711463D01*
X94098850Y-58711463D01*
X94098850Y-60035963D01*
X94079165Y-60103002D01*
X94026361Y-60148757D01*
X93974850Y-60159963D01*
X92942450Y-60159963D01*
X92942450Y-60656307D01*
X92948851Y-60715835D01*
X92948853Y-60715842D01*
X92999095Y-60850549D01*
X92999099Y-60850556D01*
X93085259Y-60965650D01*
X93085262Y-60965653D01*
X93200356Y-61051813D01*
X93200363Y-61051817D01*
X93273997Y-61079281D01*
X93329931Y-61121152D01*
X93354348Y-61186617D01*
X93339496Y-61254890D01*
X93290091Y-61304295D01*
X93230664Y-61319463D01*
X92914954Y-61319463D01*
X92779627Y-61346381D01*
X92779617Y-61346384D01*
X92652142Y-61399185D01*
X92537404Y-61475850D01*
X90062537Y-63950717D01*
X89985873Y-64065455D01*
X89933072Y-64192929D01*
X89933070Y-64192935D01*
X89927518Y-64220849D01*
X89906150Y-64328267D01*
X89906150Y-65336831D01*
X89886465Y-65403870D01*
X89869831Y-65424512D01*
X77176162Y-78118181D01*
X77114839Y-78151666D01*
X77088481Y-78154500D01*
X76483093Y-78154500D01*
X76416054Y-78134815D01*
X76410208Y-78130818D01*
X76387597Y-78114390D01*
X76387593Y-78114388D01*
X76224267Y-78041671D01*
X76224265Y-78041670D01*
X76066478Y-78008132D01*
X76049391Y-78004500D01*
X75870609Y-78004500D01*
X75853522Y-78008132D01*
X75695733Y-78041670D01*
X75695728Y-78041672D01*
X75532408Y-78114387D01*
X75387768Y-78219475D01*
X75268140Y-78352336D01*
X75178750Y-78507164D01*
X75178747Y-78507170D01*
X75123504Y-78677192D01*
X75123503Y-78677194D01*
X75104815Y-78855000D01*
X72129691Y-78855000D01*
X72014486Y-78801279D01*
X72014475Y-78801275D01*
X71800592Y-78743965D01*
X71800585Y-78743964D01*
X71580002Y-78724666D01*
X71579998Y-78724666D01*
X71359414Y-78743964D01*
X71359407Y-78743965D01*
X71145524Y-78801275D01*
X71145513Y-78801279D01*
X70944836Y-78894856D01*
X70944834Y-78894857D01*
X70763444Y-79021868D01*
X70606868Y-79178444D01*
X70479857Y-79359834D01*
X70479856Y-79359836D01*
X70386279Y-79560513D01*
X70386275Y-79560524D01*
X70328965Y-79774407D01*
X70328964Y-79774414D01*
X70309666Y-79994998D01*
X46793989Y-79994998D01*
X46796245Y-77034998D01*
X56729666Y-77034998D01*
X56729666Y-77035001D01*
X56748964Y-77255585D01*
X56748965Y-77255592D01*
X56806275Y-77469475D01*
X56806279Y-77469486D01*
X56899136Y-77668618D01*
X56899858Y-77670167D01*
X57026868Y-77851555D01*
X57183445Y-78008132D01*
X57364833Y-78135142D01*
X57485572Y-78191443D01*
X57565513Y-78228720D01*
X57565515Y-78228720D01*
X57565520Y-78228723D01*
X57779409Y-78286035D01*
X57936974Y-78299820D01*
X57999998Y-78305334D01*
X58000000Y-78305334D01*
X58000002Y-78305334D01*
X58055147Y-78300509D01*
X58220591Y-78286035D01*
X58434480Y-78228723D01*
X58635167Y-78135142D01*
X58816555Y-78008132D01*
X58973132Y-77851555D01*
X59100142Y-77670167D01*
X59193723Y-77469480D01*
X59251035Y-77255591D01*
X59270334Y-77035000D01*
X59251035Y-76814409D01*
X59193723Y-76600520D01*
X59100142Y-76399833D01*
X58973132Y-76218445D01*
X58816555Y-76061868D01*
X58635167Y-75934858D01*
X58625043Y-75930137D01*
X58434486Y-75841279D01*
X58434475Y-75841275D01*
X58220592Y-75783965D01*
X58220585Y-75783964D01*
X58000002Y-75764666D01*
X57999998Y-75764666D01*
X57779414Y-75783964D01*
X57779407Y-75783965D01*
X57565524Y-75841275D01*
X57565513Y-75841279D01*
X57364836Y-75934856D01*
X57364834Y-75934857D01*
X57183444Y-76061868D01*
X57026868Y-76218444D01*
X56899857Y-76399834D01*
X56899856Y-76399836D01*
X56806279Y-76600513D01*
X56806275Y-76600524D01*
X56748965Y-76814407D01*
X56748964Y-76814414D01*
X56729666Y-77034998D01*
X46796245Y-77034998D01*
X46802525Y-68794038D01*
X55309500Y-68794038D01*
X55309500Y-69045961D01*
X55348910Y-69294785D01*
X55426760Y-69534383D01*
X55505413Y-69688747D01*
X55516841Y-69711176D01*
X55541132Y-69758848D01*
X55689201Y-69962649D01*
X55689205Y-69962654D01*
X55867345Y-70140794D01*
X55867350Y-70140798D01*
X56003477Y-70239699D01*
X56071155Y-70288870D01*
X56171633Y-70340066D01*
X56295616Y-70403239D01*
X56295618Y-70403239D01*
X56295621Y-70403241D01*
X56535215Y-70481090D01*
X56784038Y-70520500D01*
X56784039Y-70520500D01*
X59235961Y-70520500D01*
X59235962Y-70520500D01*
X59484785Y-70481090D01*
X59724379Y-70403241D01*
X59948845Y-70288870D01*
X60152656Y-70140793D01*
X60330793Y-69962656D01*
X60478870Y-69758845D01*
X60593241Y-69534379D01*
X60671090Y-69294785D01*
X60710500Y-69045962D01*
X60710500Y-68794038D01*
X60671090Y-68545215D01*
X60593241Y-68305621D01*
X60593239Y-68305618D01*
X60593239Y-68305616D01*
X60551747Y-68224184D01*
X60478870Y-68081155D01*
X60390539Y-67959577D01*
X60330798Y-67877350D01*
X60330794Y-67877345D01*
X60152654Y-67699205D01*
X60152649Y-67699201D01*
X59948848Y-67551132D01*
X59948847Y-67551131D01*
X59948845Y-67551130D01*
X59857415Y-67504544D01*
X59724383Y-67436760D01*
X59484785Y-67358910D01*
X59448847Y-67353218D01*
X59235962Y-67319500D01*
X56784038Y-67319500D01*
X56659626Y-67339205D01*
X56535214Y-67358910D01*
X56295616Y-67436760D01*
X56071151Y-67551132D01*
X55867350Y-67699201D01*
X55867345Y-67699205D01*
X55689205Y-67877345D01*
X55689201Y-67877350D01*
X55541132Y-68081151D01*
X55426760Y-68305616D01*
X55348910Y-68545214D01*
X55309500Y-68794038D01*
X46802525Y-68794038D01*
X46805301Y-65150883D01*
X51870000Y-65150883D01*
X51870000Y-65965000D01*
X52940000Y-65965000D01*
X52940000Y-66465000D01*
X51870000Y-66465000D01*
X51870000Y-67279116D01*
X51905704Y-67504544D01*
X51976230Y-67721604D01*
X52079849Y-67924966D01*
X52214004Y-68109614D01*
X52375385Y-68270995D01*
X52560033Y-68405150D01*
X52763395Y-68508769D01*
X52980455Y-68579295D01*
X53070000Y-68593478D01*
X53070000Y-67647401D01*
X53086675Y-67664076D01*
X53173325Y-67714104D01*
X53269972Y-67740000D01*
X53370028Y-67740000D01*
X53466675Y-67714104D01*
X53553325Y-67664076D01*
X53570000Y-67647401D01*
X53570000Y-68593477D01*
X53659544Y-68579295D01*
X53876604Y-68508769D01*
X54079966Y-68405150D01*
X54264614Y-68270995D01*
X54425995Y-68109614D01*
X54560150Y-67924966D01*
X54663769Y-67721604D01*
X54734295Y-67504544D01*
X54770000Y-67279116D01*
X54770000Y-66465000D01*
X53700000Y-66465000D01*
X53700000Y-65965000D01*
X54770000Y-65965000D01*
X54770000Y-65150883D01*
X54734295Y-64925455D01*
X54663769Y-64708395D01*
X54560150Y-64505033D01*
X54425995Y-64320385D01*
X54264614Y-64159004D01*
X54079966Y-64024849D01*
X53876602Y-63921229D01*
X53659541Y-63850703D01*
X53570000Y-63836521D01*
X53570000Y-64782599D01*
X53553325Y-64765924D01*
X53466675Y-64715896D01*
X53370028Y-64690000D01*
X53269972Y-64690000D01*
X53173325Y-64715896D01*
X53086675Y-64765924D01*
X53070000Y-64782599D01*
X53070000Y-63836521D01*
X53069999Y-63836521D01*
X52980458Y-63850703D01*
X52763397Y-63921229D01*
X52560033Y-64024849D01*
X52375385Y-64159004D01*
X52214004Y-64320385D01*
X52079849Y-64505033D01*
X51976230Y-64708395D01*
X51905704Y-64925455D01*
X51870000Y-65150883D01*
X46805301Y-65150883D01*
X46807157Y-62715000D01*
X55631522Y-62715000D01*
X56577599Y-62715000D01*
X56560924Y-62731675D01*
X56510896Y-62818325D01*
X56485000Y-62914972D01*
X56485000Y-63015028D01*
X56510896Y-63111675D01*
X56560924Y-63198325D01*
X56577599Y-63215000D01*
X55631522Y-63215000D01*
X55645704Y-63304544D01*
X55716230Y-63521604D01*
X55819849Y-63724966D01*
X55954004Y-63909614D01*
X56115385Y-64070995D01*
X56300033Y-64205150D01*
X56503395Y-64308769D01*
X56720455Y-64379295D01*
X56945884Y-64415000D01*
X57760000Y-64415000D01*
X57760000Y-63345000D01*
X58260000Y-63345000D01*
X58260000Y-64415000D01*
X59074116Y-64415000D01*
X59299544Y-64379295D01*
X59516604Y-64308769D01*
X59719966Y-64205150D01*
X59904614Y-64070995D01*
X60065995Y-63909614D01*
X60200150Y-63724966D01*
X60303769Y-63521604D01*
X60374295Y-63304544D01*
X60388478Y-63215000D01*
X59442401Y-63215000D01*
X59459076Y-63198325D01*
X59509104Y-63111675D01*
X59535000Y-63015028D01*
X59535000Y-62914972D01*
X59509104Y-62818325D01*
X59459076Y-62731675D01*
X59442401Y-62715000D01*
X60388478Y-62715000D01*
X60374295Y-62625455D01*
X60303769Y-62408395D01*
X60200150Y-62205033D01*
X60065995Y-62020385D01*
X59904614Y-61859004D01*
X59719966Y-61724849D01*
X59516604Y-61621230D01*
X59299544Y-61550704D01*
X59074116Y-61515000D01*
X58260000Y-61515000D01*
X58260000Y-62585000D01*
X57760000Y-62585000D01*
X57760000Y-61515000D01*
X56945884Y-61515000D01*
X56720455Y-61550704D01*
X56503395Y-61621230D01*
X56300033Y-61724849D01*
X56115385Y-61859004D01*
X55954004Y-62020385D01*
X55819849Y-62205033D01*
X55716230Y-62408395D01*
X55645704Y-62625455D01*
X55631522Y-62715000D01*
X46807157Y-62715000D01*
X46810442Y-58404483D01*
X46810500Y-58403636D01*
X46810500Y-58379994D01*
X47379556Y-58379994D01*
X47379556Y-58380005D01*
X47399310Y-58694004D01*
X47399311Y-58694011D01*
X47403861Y-58717864D01*
X47451838Y-58969369D01*
X47458270Y-59003083D01*
X47555497Y-59302316D01*
X47555499Y-59302321D01*
X47689461Y-59587003D01*
X47689464Y-59587009D01*
X47858051Y-59852661D01*
X47858054Y-59852665D01*
X48058606Y-60095090D01*
X48058608Y-60095092D01*
X48058610Y-60095094D01*
X48197044Y-60225092D01*
X48287968Y-60310476D01*
X48287978Y-60310484D01*
X48542504Y-60495408D01*
X48542509Y-60495410D01*
X48542516Y-60495416D01*
X48818234Y-60646994D01*
X48818239Y-60646996D01*
X48818241Y-60646997D01*
X48818242Y-60646998D01*
X49110771Y-60762818D01*
X49110774Y-60762819D01*
X49415523Y-60841065D01*
X49415527Y-60841066D01*
X49481010Y-60849338D01*
X49727670Y-60880499D01*
X49727679Y-60880499D01*
X49727682Y-60880500D01*
X49727684Y-60880500D01*
X50042316Y-60880500D01*
X50042318Y-60880500D01*
X50042321Y-60880499D01*
X50042329Y-60880499D01*
X50228593Y-60856968D01*
X50354473Y-60841066D01*
X50659225Y-60762819D01*
X50659228Y-60762818D01*
X50951757Y-60646998D01*
X50951758Y-60646997D01*
X50951756Y-60646997D01*
X50951766Y-60646994D01*
X51227484Y-60495416D01*
X51482030Y-60310478D01*
X51711390Y-60095094D01*
X51911947Y-59852663D01*
X52080537Y-59587007D01*
X52214503Y-59302315D01*
X52311731Y-59003079D01*
X52370688Y-58694015D01*
X52370689Y-58694004D01*
X52381636Y-58519998D01*
X83244666Y-58519998D01*
X83244666Y-58520001D01*
X83263964Y-58740585D01*
X83263965Y-58740592D01*
X83321275Y-58954475D01*
X83321279Y-58954486D01*
X83404558Y-59133079D01*
X83414858Y-59155167D01*
X83541868Y-59336555D01*
X83698445Y-59493132D01*
X83879833Y-59620142D01*
X83928499Y-59642835D01*
X84080513Y-59713720D01*
X84080515Y-59713720D01*
X84080520Y-59713723D01*
X84294409Y-59771035D01*
X84451974Y-59784820D01*
X84514998Y-59790334D01*
X84515000Y-59790334D01*
X84515002Y-59790334D01*
X84570147Y-59785509D01*
X84735591Y-59771035D01*
X84949480Y-59713723D01*
X85150167Y-59620142D01*
X85331555Y-59493132D01*
X85488132Y-59336555D01*
X85609225Y-59163618D01*
X92942450Y-59163618D01*
X92942450Y-59659963D01*
X93598850Y-59659963D01*
X93598850Y-58711463D01*
X93394605Y-58711463D01*
X93335077Y-58717864D01*
X93335070Y-58717866D01*
X93200363Y-58768108D01*
X93200356Y-58768112D01*
X93085262Y-58854272D01*
X93085259Y-58854275D01*
X92999099Y-58969369D01*
X92999095Y-58969376D01*
X92948853Y-59104083D01*
X92948851Y-59104090D01*
X92942450Y-59163618D01*
X85609225Y-59163618D01*
X85615142Y-59155167D01*
X85708723Y-58954480D01*
X85766035Y-58740591D01*
X85785334Y-58520000D01*
X85784459Y-58509994D01*
X140009556Y-58509994D01*
X140009556Y-58510005D01*
X140029310Y-58824004D01*
X140029311Y-58824011D01*
X140054199Y-58954480D01*
X140076623Y-59072031D01*
X140088270Y-59133083D01*
X140185497Y-59432316D01*
X140185499Y-59432321D01*
X140319461Y-59717003D01*
X140319464Y-59717009D01*
X140488051Y-59982661D01*
X140488054Y-59982665D01*
X140688606Y-60225090D01*
X140688608Y-60225092D01*
X140688610Y-60225094D01*
X140779535Y-60310478D01*
X140917968Y-60440476D01*
X140917978Y-60440484D01*
X141172504Y-60625408D01*
X141172509Y-60625410D01*
X141172516Y-60625416D01*
X141448234Y-60776994D01*
X141448239Y-60776996D01*
X141448241Y-60776997D01*
X141448242Y-60776998D01*
X141740771Y-60892818D01*
X141740774Y-60892819D01*
X141864164Y-60924500D01*
X142045527Y-60971066D01*
X142111010Y-60979338D01*
X142357670Y-61010499D01*
X142357679Y-61010499D01*
X142357682Y-61010500D01*
X142357684Y-61010500D01*
X142672316Y-61010500D01*
X142672318Y-61010500D01*
X142672321Y-61010499D01*
X142672329Y-61010499D01*
X142858593Y-60986968D01*
X142984473Y-60971066D01*
X143289225Y-60892819D01*
X143289228Y-60892818D01*
X143581757Y-60776998D01*
X143581758Y-60776997D01*
X143581756Y-60776997D01*
X143581766Y-60776994D01*
X143857484Y-60625416D01*
X144112030Y-60440478D01*
X144341390Y-60225094D01*
X144541947Y-59982663D01*
X144710537Y-59717007D01*
X144844503Y-59432315D01*
X144941731Y-59133079D01*
X145000688Y-58824015D01*
X145004205Y-58768112D01*
X145020444Y-58510005D01*
X145020444Y-58509994D01*
X145000689Y-58195995D01*
X145000688Y-58195988D01*
X145000688Y-58195985D01*
X144941731Y-57886921D01*
X144844503Y-57587685D01*
X144710537Y-57302993D01*
X144628035Y-57172990D01*
X144541948Y-57037338D01*
X144541945Y-57037334D01*
X144341393Y-56794909D01*
X144341391Y-56794907D01*
X144202956Y-56664907D01*
X144112030Y-56579522D01*
X144112027Y-56579520D01*
X144112021Y-56579515D01*
X143857495Y-56394591D01*
X143857488Y-56394586D01*
X143857484Y-56394584D01*
X143581766Y-56243006D01*
X143581763Y-56243004D01*
X143581758Y-56243002D01*
X143581757Y-56243001D01*
X143289228Y-56127181D01*
X143289225Y-56127180D01*
X142984476Y-56048934D01*
X142984463Y-56048932D01*
X142672329Y-56009500D01*
X142672318Y-56009500D01*
X142357682Y-56009500D01*
X142357670Y-56009500D01*
X142045536Y-56048932D01*
X142045523Y-56048934D01*
X141740774Y-56127180D01*
X141740771Y-56127181D01*
X141448242Y-56243001D01*
X141448241Y-56243002D01*
X141172516Y-56394584D01*
X141172504Y-56394591D01*
X140917978Y-56579515D01*
X140917968Y-56579523D01*
X140688608Y-56794907D01*
X140688606Y-56794909D01*
X140488054Y-57037334D01*
X140488051Y-57037338D01*
X140319464Y-57302990D01*
X140319461Y-57302996D01*
X140185499Y-57587678D01*
X140185497Y-57587683D01*
X140088270Y-57886916D01*
X140029311Y-58195988D01*
X140029310Y-58195995D01*
X140009556Y-58509994D01*
X85784459Y-58509994D01*
X85766035Y-58299409D01*
X85708723Y-58085520D01*
X85699618Y-58065995D01*
X85667924Y-57998025D01*
X85615142Y-57884833D01*
X85488132Y-57703445D01*
X85331555Y-57546868D01*
X85150167Y-57419858D01*
X85079162Y-57386748D01*
X84949486Y-57326279D01*
X84949475Y-57326275D01*
X84735592Y-57268965D01*
X84735585Y-57268964D01*
X84515002Y-57249666D01*
X84514998Y-57249666D01*
X84294414Y-57268964D01*
X84294407Y-57268965D01*
X84080524Y-57326275D01*
X84080513Y-57326279D01*
X83879836Y-57419856D01*
X83879834Y-57419857D01*
X83698444Y-57546868D01*
X83541868Y-57703444D01*
X83414857Y-57884834D01*
X83414856Y-57884836D01*
X83321279Y-58085513D01*
X83321275Y-58085524D01*
X83263965Y-58299407D01*
X83263964Y-58299414D01*
X83244666Y-58519998D01*
X52381636Y-58519998D01*
X52390444Y-58380005D01*
X52390444Y-58379994D01*
X52370689Y-58065995D01*
X52370688Y-58065988D01*
X52370688Y-58065985D01*
X52311731Y-57756921D01*
X52214503Y-57457685D01*
X52196702Y-57419857D01*
X52125698Y-57268965D01*
X52080537Y-57172993D01*
X52011630Y-57064412D01*
X51911948Y-56907338D01*
X51911945Y-56907334D01*
X51711393Y-56664909D01*
X51711391Y-56664907D01*
X51620466Y-56579522D01*
X51482030Y-56449522D01*
X51482027Y-56449520D01*
X51482021Y-56449515D01*
X51227495Y-56264591D01*
X51227488Y-56264586D01*
X51227484Y-56264584D01*
X50951766Y-56113006D01*
X50951763Y-56113004D01*
X50951758Y-56113002D01*
X50951757Y-56113001D01*
X50659228Y-55997181D01*
X50659225Y-55997180D01*
X50354476Y-55918934D01*
X50354463Y-55918932D01*
X50042329Y-55879500D01*
X50042318Y-55879500D01*
X49727682Y-55879500D01*
X49727670Y-55879500D01*
X49415536Y-55918932D01*
X49415523Y-55918934D01*
X49110774Y-55997180D01*
X49110771Y-55997181D01*
X48818242Y-56113001D01*
X48818241Y-56113002D01*
X48542516Y-56264584D01*
X48542504Y-56264591D01*
X48287978Y-56449515D01*
X48287968Y-56449523D01*
X48058608Y-56664907D01*
X48058606Y-56664909D01*
X47858054Y-56907334D01*
X47858051Y-56907338D01*
X47689464Y-57172990D01*
X47689461Y-57172996D01*
X47555499Y-57457678D01*
X47555497Y-57457683D01*
X47458270Y-57756916D01*
X47399311Y-58065988D01*
X47399310Y-58065995D01*
X47379556Y-58379994D01*
X46810500Y-58379994D01*
X46810500Y-58333246D01*
X46810670Y-58326756D01*
X46827222Y-58010932D01*
X46828579Y-57998025D01*
X46846506Y-57884834D01*
X46877542Y-57688876D01*
X46880236Y-57676197D01*
X46961255Y-57373831D01*
X46965259Y-57361509D01*
X47077440Y-57069268D01*
X47082704Y-57057446D01*
X47224826Y-56778514D01*
X47231287Y-56767324D01*
X47401788Y-56504776D01*
X47409397Y-56494304D01*
X47606396Y-56251029D01*
X47615063Y-56241404D01*
X47836404Y-56020063D01*
X47846029Y-56011396D01*
X48089304Y-55814397D01*
X48099776Y-55806788D01*
X48362324Y-55636287D01*
X48373514Y-55629826D01*
X48652446Y-55487704D01*
X48664268Y-55482440D01*
X48956509Y-55370259D01*
X48968831Y-55366255D01*
X49271197Y-55285236D01*
X49283876Y-55282542D01*
X49593025Y-55233579D01*
X49605930Y-55232222D01*
X49921756Y-55215669D01*
X49928246Y-55215500D01*
X49936818Y-55215500D01*
X142432921Y-55216689D01*
G37*
%TD.AperFunction*%
%TD*%
M02*
