M48
; DRILL file {KiCad 8.0.3} date 2024-08-08T10:10:10-0700
; FORMAT={-:-/ absolute / inch / decimal}
; #@! TF.CreationDate,2024-08-08T10:10:10-07:00
; #@! TF.GenerationSoftware,Kicad,Pcbnew,8.0.3
; #@! TF.FileFunction,Plated,1,2,PTH
FMAT,2
INCH
; #@! TA.AperFunction,Plated,PTH,ViaDrill
T1C0.0118
; #@! TA.AperFunction,Plated,PTH,ViaDrill
T2C0.0157
; #@! TA.AperFunction,Plated,PTH,ViaDrill
T3C0.0276
; #@! TA.AperFunction,Plated,PTH,ComponentDrill
T4C0.0299
; #@! TA.AperFunction,Plated,PTH,ComponentDrill
T5C0.0394
; #@! TA.AperFunction,Plated,PTH,ComponentDrill
T6C0.0402
; #@! TA.AperFunction,Plated,PTH,ComponentDrill
T7C0.0470
; #@! TA.AperFunction,Plated,PTH,ComponentDrill
T8C0.1260
%
G90
G05
T1
X2.1199Y-3.4878
X2.612Y-2.4978
X2.6961Y-3.1789
X2.9356Y-3.4921
X3.5817Y-3.4933
X3.6597Y-2.413
X3.7628Y-2.4142
X3.8648Y-2.8181
X3.9089Y-2.4167
X4.153Y-3.4892
X4.3561Y-2.8012
X4.465Y-2.8949
X4.6106Y-2.8933
X4.679Y-2.7852
X4.7301Y-3.4909
X4.7309Y-3.0459
X5.2921Y-3.4937
T2
X2.7209Y-2.4305
X2.9906Y-3.1045
X3.5809Y-2.8902
X3.726Y-2.5675
X3.736Y-2.6327
X3.8636Y-2.4228
X3.9628Y-2.4244
X3.9634Y-2.575
X4.1964Y-2.4322
X4.2221Y-2.5984
X4.3016Y-2.5868
X4.411Y-2.4201
X4.4435Y-2.3693
X4.475Y-2.6333
X4.5115Y-2.6401
X4.5124Y-2.4321
X4.5373Y-2.7772
X4.5624Y-2.5829
T3
X2.9573Y-2.835
T6
X2.2835Y-3.0329
X2.8181Y-3.1494
X3.152Y-3.1512
X3.3274Y-2.3039
X4.7801Y-2.4348
T7
X3.3063Y-3.0547
X3.3063Y-3.1925
X5.0189Y-3.0547
T8
X1.9626Y-5.3967
X1.964Y-2.2984
X5.6038Y-5.3955
X5.6108Y-2.3035
T4
X2.0992Y-2.652G85X2.0992Y-2.5618
G05
X2.3289Y-2.4789G85X2.2388Y-2.4789
G05
T5
X5.1403Y-2.6964G85X5.1403Y-2.7161
G05
X5.1896Y-2.4831G85X5.1896Y-2.5027
G05
X5.3561Y-2.696G85X5.3561Y-2.7157
G05
T6
X2.3339Y-2.7134G85X2.2339Y-2.7134
G05
M30
